<?xml version='1.0' encoding='utf-8'?>
<svg xmlns="http://www.w3.org/2000/svg" width="368.64883mm" height="512.91132mm" viewBox="0 0 368.64883 512.91132" version="1.1" id="svg5" xml:space="preserve"><defs id="defs2" /><g id="layer1"><path style="fill:#000000;stroke-width:1" d="m 166.28499999999985 495.71529999999984 c -40.298,-39.2753 -56.612,-57.0313 -74.954,-81.5752 -20.696,-27.6952 -38.506,-61.051 -49.132,-92.0163 -9.535,-27.7864 -14.807,-59.7037 -14.914,-90.2881 l -0.02,-6.7945 -0.933,2.5239 c -1.602,4.33 -3.975,5.8181 -9.29,5.8225 -6.125,0 -9.174,-3.794 -8.21,-10.2263 0.251,-1.6741 2.28,-5.3042 2.964,-5.3042 0.185,0 0.524,0.743 0.753,1.6511 1.498,5.926 3.391,7.4614 6.243,5.0608 2.754,-2.3169 4.049,-7.3987 3.769,-14.7732 -0.234,-6.1175 -1.253,-10.3628 -3.889,-16.2063 -1.06,-2.3499 -2.007,-4.6206 -2.105,-5.0477 -0.111,-0.4656 0.44,-1.7908 1.359,-3.3009 0.845,-1.3879 1.487,-2.5767 1.426,-2.6405 -0.07,-0.066 -0.923,0.3984 -1.917,1.028 -0.993,0.6307 -2.98,1.454 -4.413,1.8304 -1.434,0.3765 -2.94,0.852 -3.346,1.0556 -0.691,0.3467 -0.724,0.2432 -0.506,-1.5949 0.128,-1.0819 0.517,-2.5161 0.865,-3.1886 1.023,-1.9779 0.391,-1.7303 -0.962,0.3764 -2.401,3.7423 -3.374,7.8137 -2.333,9.7597 0.524,0.9796 0.13,0.9498 -1.411,-0.1101 -2.573,-1.7611 -4.078,-5.477 -3.491,-8.6095 0.137,-0.7253 0.789,-2.4005 1.449,-3.7224 l 1.202,-2.4039 -1.165,-1.2306 c -1.197,-1.2657 -1.739,-2.1507 -2.432,-3.9767 l -0.401,-1.0511 1.845,0.252 c 1.407,0.1926 2.419,0.044 4.271,-0.6175 2.486,-0.8915 2.469,-0.8926 5.264,0.273 0.599,0.2499 0.678,0.033 0.667,-1.7963 0,-1.1436 -0.329,-2.9971 -0.716,-4.1187 -0.656,-1.8987 -0.66,-2.0384 -0.04,-2.0384 0.362,0 1.352,0.503 2.201,1.1171 1.866,1.3517 3.552,4.581 3.892,7.4538 0.211,1.7831 0.3,1.9438 0.744,1.3362 1.033,-1.4133 1.431,-4.8044 0.929,-7.938 -0.615,-3.8491 -1.866,-6.7626 -4.879,-11.3733 -2.436,-3.7269 -4.609,-7.6904 -5.737,-10.463 -0.961,-2.362 -1.533,-6.9034 -1.106,-8.769 0.407,-1.7809 0,-2.1904 -0.765,-0.7771 -0.261,0.481 -1.465,3.3196 -2.676,6.3101 -1.211,2.9895 -2.358,5.4208 -2.548,5.4032 -0.19,-0.022 -0.679,-0.8915 -1.086,-1.9415 -1.574,-4.0626 -0.621,-10.1846 2.377,-15.273 2.841,-4.8198 9.272,-10.7282 14.271,-13.1123 1.246,-0.5944 1.371,-0.8013 1.371,-2.2806 0,-2.0373 0.88,-4.5788 2.175,-6.2749 1.761,-2.3092 3.6,-3.181 10.118,-4.7945 3.382,-0.8377 6.588,-1.8437 7.121,-2.2355 0.534,-0.393 1.264,-1.5729 1.622,-2.6229 l 0.651,-1.9108 0.659,1.5542 c 0.505,1.1931 0.613,2.2751 0.464,4.6712 -0.238,3.8381 -1.682,6.9849 -4.321,9.4185 -2.307,2.1265 -1.717,2.089 1.225,-0.077 4.2,-3.0918 6.773,-7.8819 6.116,-11.3842 -0.647,-3.4517 -2.802,-5.9294 -5.154,-5.9294 -1.05,0 -1.685,0.3325 -2.836,1.4827 -1.391,1.3901 -1.496,1.4319 -1.69,0.656 -0.115,-0.4546 -0.03,-1.4518 0.175,-2.2146 0.902,-3.2701 3.562,-4.9497 7.859,-4.9629 5.719,-0.022 8.337,2.471 10.01,9.5186 l 0.789,3.3185 -1.476,1.6774 c -1.921,2.1827 -3.124,4.6361 -3.658,7.4648 -0.273,1.4419 -0.735,2.547 -1.258,3.0048 -0.798,0.699 -0.8,0.7199 -0.06,0.5713 0.59,-0.1178 1.03,0.2818 1.83,1.6631 0.974,1.6796 5.452,5.8082 9.431,8.6942 1.136,0.8244 0.907,0.5052 -0.857,-1.1865 -4.663,-4.4775 -5.759,-9.4317 -3.148,-14.2284 2.742,-5.0334 7.679,-6.5875 13.035,-4.1011 2.827,1.312 5.168,4.9717 5.748,8.9837 l 0.275,1.8986 -2.673,-1.465 c -1.47,-0.8057 -3.343,-1.8172 -4.162,-2.2464 l -1.488,-0.7804 -0.967,0.9686 c -3.045,3.0433 -0.216,8.4432 5.866,11.2015 6.854,3.1072 17.946,4.0351 27.872,2.3313 14.21,-2.4402 31.011,-11.5637 38.193,-20.7411 2.265,-2.8937 2.317,-2.9311 4.11,-2.9487 2.834,-0.022 7.632,-0.765 10.549,-1.6224 1.463,-0.4293 2.597,-0.8409 2.524,-0.9147 -0.08,-0.077 -1.096,0.1299 -2.27,0.4535 -2.602,0.7165 -10.305,0.7991 -14.145,0.1519 -1.48,-0.2488 -4.232,-1.0313 -6.116,-1.7391 -1.883,-0.7077 -3.424,-1.2272 -3.424,-1.1546 0,0.2334 3.003,1.6742 5.223,2.5052 1.185,0.4424 2.154,0.9542 2.154,1.1359 0,0.6769 -2.581,3.6377 -4.155,4.767 -2.674,1.9184 -4.674,1.8898 -9.091,-0.1299 -3.97,-1.815 -7.944,-2.449 -9.645,-1.5388 -0.474,0.2543 -0.935,0.3875 -1.025,0.2972 -0.352,-0.3522 2.224,-3.401 3.378,-3.9976 l 1.223,-0.6318 -2.088,-1.1843 c -10.702,-6.0669 -16.602,-17.3246 -14.105,-26.9115 0.894,-3.4363 2.186,-5.3404 6.94,-10.2329 5.917,-6.0889 6.119,-6.3124 5.909,-6.5215 -0.254,-0.2543 -3.518,1.2184 -4.927,2.2212 l -1.147,0.8167 -0.388,-1.0226 c -1.059,-2.7847 0.399,-7.0564 3.033,-8.8813 2.598,-1.8007 6.908,-2.679 13.274,-2.7077 14.002,-0.066 26.452,4.8892 35.874,14.2637 5.621,5.5936 8.482,10.5873 8.534,14.8954 0.01,1.1204 0.08,2.0384 0.129,2.0384 0.208,0 2.651,-4.8925 3.492,-6.9893 0.547,-1.367 0.863,-3.0059 0.876,-4.5534 0.02,-2.1342 -0.186,-2.8112 -1.744,-5.7896 -0.97,-1.8546 -2.295,-4.0428 -2.944,-4.8628 -0.65,-0.82 -1.123,-1.4914 -1.052,-1.4914 0.08,0 1.049,0.3501 2.172,0.7771 2.708,1.0291 4.162,1.0038 4.926,-0.088 0.912,-1.3032 0.743,-2.0869 -0.828,-3.8249 -1.857,-2.056 -4.438,-3.3383 -7.858,-3.903 -2.302,-0.3797 -2.673,-0.5426 -2.29,-1.0049 0.955,-1.1513 2.637,-1.6642 5.445,-1.6609 3.697,0 6.064,1.0798 8.628,3.9173 1.042,1.1535 1.671,1.6719 1.396,1.1513 -1.424,-2.6955 -5.868,-6.2793 -10.57,-8.5236 -1.205,-0.5757 -2.296,-1.5255 -3.21,-2.7968 -1.627,-2.2641 -3.402,-3.455 -5.155,-3.4572 -1.496,0 -1.516,-0.077 -0.409,-1.5773 1.187,-1.6037 1.143,-3.7049 -0.1,-4.69 -1.292,-1.0258 -4.135,-0.8012 -7.116,0.5625 l -2.28,1.0456 0.246,-1.2371 c 0.36,-1.7963 2.004,-4.4148 3.477,-5.5397 3.716,-2.8342 10.897,-3.2646 15.696,-0.9422 1.687,0.8167 2.84,2.1012 6.207,6.9133 0.907,1.2955 1.815,2.3566 2.016,2.3566 0.203,0 -0.224,-1.2977 -0.946,-2.8849 -1.69,-3.706 -2.259,-5.8567 -1.964,-7.424 0.129,-0.6912 1.715,-3.3274 3.523,-5.86 1.809,-2.5326 4.277,-6.5754 5.487,-8.9837 l 2.199,-4.3785 2.366,4.767 c 1.302,2.6218 3.569,6.4148 5.04,8.429 1.47,2.0131 2.99,4.3752 3.376,5.2491 0.824,1.8601 0.607,3.3405 -1.027,7.0168 -0.566,1.2768 -1.195,2.7506 -1.396,3.2745 -0.366,0.9488 -0.365,0.9499 0.458,0.2058 0.452,-0.4094 1.751,-2.0615 2.883,-3.6696 2.503,-3.5519 3.398,-4.406 5.669,-5.4098 3.521,-1.5586 9.79,-1.3935 13.164,0.3467 1.875,0.9664 3.699,2.9476 4.65,5.051 1.204,2.6636 1.067,2.8628 -1.187,1.7203 -3.693,-1.8722 -7.994,-1.5673 -8.686,0.6131 -0.358,1.1304 0.116,2.9102 0.985,3.6961 0.865,0.7825 0.671,1.3472 -0.462,1.3472 -1.594,0 -3.513,1.2955 -4.734,3.1941 -1.057,1.6444 -1.701,2.1353 -4.717,3.5981 -1.987,0.9631 -4.447,2.547 -5.7,3.6697 -2.12,1.8997 -5.372,6.2386 -5.362,7.1532 0,0.2422 0.44,-0.3214 0.973,-1.2536 2.193,-3.837 4.313,-5.5573 8.016,-6.5061 2.976,-0.7628 5.282,-0.5019 7.604,0.8585 0.942,0.5526 1.655,1.0578 1.585,1.1227 -0.07,0.066 -1.428,0.3192 -3.019,0.5636 -1.589,0.2443 -3.608,0.7616 -4.485,1.1502 -3.914,1.7313 -6.005,5.1588 -4.091,6.7086 1.129,0.9146 2.881,0.8882 5.006,-0.077 0.931,-0.4227 1.753,-0.7683 1.827,-0.7683 0.08,0 -0.798,1.301 -1.937,2.8893 -4.906,6.8374 -5.209,10.146 -1.582,17.2795 2.175,4.2783 2.326,4.3487 2.353,1.0962 0.03,-3.4792 1.167,-6.1913 4.314,-10.3012 5.357,-6.9958 13.678,-12.8514 22.414,-15.7715 5.934,-1.9834 10.399,-2.7022 16.737,-2.6922 9.191,0.011 13.928,1.6565 16.021,5.5583 0.797,1.4882 0.903,2.0891 0.708,4.0461 -0.263,2.646 -0.407,2.8948 -1.313,2.2542 -1.072,-0.7584 -3.307,-1.9064 -4.324,-2.2223 -0.91,-0.2817 -0.897,-0.2289 0.349,1.4067 0.712,0.9345 3.192,3.5629 5.511,5.8413 3.563,3.499 4.443,4.614 5.67,7.183 1.399,2.931 1.452,3.1897 1.431,7.1191 -0.02,3.4044 -0.187,4.5084 -1.02,6.6943 -2.246,5.9018 -6.677,11.1443 -12.339,14.5993 -1.806,1.1018 -3.064,2.0032 -2.797,2.0032 0.616,0 4.334,3.6895 4.334,4.3004 0,0.3137 -0.15,0.3335 -0.485,0.066 -0.861,-0.6945 -3.639,-0.9378 -5.377,-0.47 -0.923,0.2488 -2.973,1.0754 -4.554,1.8359 -3.618,1.7413 -5.975,2.0187 -8.066,0.9521 -1.862,-0.9499 -5.304,-4.5358 -5.134,-5.3481 0.07,-0.3225 1.688,-1.279 3.599,-2.1243 1.911,-0.8454 3.643,-1.705 3.847,-1.9097 0.205,-0.2047 -1.037,0.2377 -2.761,0.9829 -1.725,0.7451 -4.504,1.6312 -6.177,1.968 -3.609,0.7275 -11.904,0.8266 -14.647,0.175 -1.042,-0.2476 -1.971,-0.3753 -2.065,-0.2818 -0.41,0.4106 7.385,1.8756 10.495,1.9724 l 3.437,0.1101 1.651,2.0924 c 7.578,9.6034 23.149,18.4913 37.642,21.4851 10.139,2.0935 22.202,1.2504 29.51,-2.0627 4.541,-2.0593 8.008,-6.2188 7.393,-8.8692 -0.658,-2.8342 -1.995,-3.4528 -4.437,-2.0571 -0.744,0.4259 -2.382,1.3142 -3.64,1.9746 l -2.287,1.2008 0.261,-2.0715 c 0.349,-2.778 2.285,-6.6711 3.947,-7.9391 5.18,-3.9503 12.405,-2.0858 15.33,3.9569 1.013,2.0913 1.101,5.3988 0.21,7.8742 -0.591,1.6433 -3.136,5.477 -3.655,5.5056 -0.142,0 -0.958,0.6417 -1.812,1.4078 l -1.553,1.3934 2.135,-1.4683 c 4.107,-2.8221 9.237,-7.5187 9.973,-9.1279 0.606,-1.3274 0.844,-1.5178 1.677,-1.3428 0.897,0.1882 0.911,0.1695 0.194,-0.2476 -0.427,-0.2477 -0.84,-0.502 -0.917,-0.5658 -0.08,-0.066 -0.38,-1.2592 -0.673,-2.657 -0.735,-3.5101 -1.317,-4.7538 -3.442,-7.3624 l -1.838,-2.2564 0.633,-2.5811 c 0.983,-4.0097 2.666,-7.1422 4.536,-8.4377 2.968,-2.0561 8.688,-1.7215 11.409,0.667 1.474,1.2955 2.374,3.6003 1.995,5.1126 l -0.242,0.9631 -1.511,-1.5112 c -2.136,-2.1353 -3.744,-2.1133 -5.618,0.077 -1.758,2.0539 -2.427,4.6592 -1.796,6.9992 1.03,3.827 3.378,6.9122 7.164,9.4174 2.253,1.4903 2.377,1.2536 0.329,-0.6274 -3.972,-3.6488 -6.052,-11.4723 -3.85,-14.4838 0.502,-0.6868 0.569,-0.6252 0.976,0.8861 0.729,2.7065 0.472,2.5777 9.884,4.9783 7.235,1.8458 10.694,4.9949 11.308,10.2935 l 0.261,2.241 2.974,1.7445 c 7.033,4.122 12.85,10.9187 14.628,17.0913 0.83,2.8738 0.822,7.2666 -0.01,9.7728 -0.356,1.0655 -0.777,2.0737 -0.934,2.2421 -0.291,0.3093 -1.345,-2.0142 -3.522,-7.7641 -0.664,-1.7534 -1.52,-3.5739 -1.902,-4.0461 -0.684,-0.8442 -0.693,-0.8222 -0.515,1.3142 0.233,2.8155 -0.796,7.4736 -2.425,10.9671 -0.697,1.4958 -2.688,4.8837 -4.425,7.5286 -3.837,5.8468 -5.098,9.3238 -5.098,14.0545 0,2.0307 0.22,3.597 0.638,4.5425 l 0.637,1.444 0.308,-1.6146 c 0.733,-3.8656 2.946,-7.1489 5.649,-8.3806 1.251,-0.569 1.423,-0.2718 0.762,1.3098 -0.307,0.7342 -0.614,2.3775 -0.685,3.651 -0.11,1.9096 -0.02,2.2883 0.456,2.1562 1.804,-0.492 3.134,-0.4007 5.033,0.3478 1.629,0.6428 2.543,0.7749 3.977,0.5778 1.275,-0.175 1.862,-0.1177 1.862,0.1817 0,0.8706 -1.937,4.2353 -2.855,4.9563 l -0.939,0.7396 1.348,2.1717 c 2.854,4.5964 1.766,10.8713 -2.245,12.945 l -1.155,0.5987 0.302,-1.0841 c 0.841,-3.0104 -0.446,-7.6299 -2.955,-10.5984 l -0.819,-0.9686 0.768,1.7468 c 0.749,1.7038 1.076,5.0499 0.494,5.0455 -0.76,0 -7.645,-2.7836 -8.623,-3.4804 -1.887,-1.3439 -1.999,-0.8838 -0.399,1.6378 0.847,1.3352 1.541,2.8057 1.544,3.269 0,0.4623 -0.872,2.6472 -1.942,4.854 -2.62,5.4054 -3.884,10.4674 -4.154,16.6312 -0.133,3.0301 -0.04,5.6651 0.238,7.0145 0.627,3.0093 2.411,6.6052 3.895,7.8544 2.539,2.1376 4.375,0.9653 5.655,-3.6091 0.427,-1.5266 0.951,-2.7913 1.165,-2.8089 0.213,-0.022 0.888,0.7716 1.499,1.7556 1.32,2.1254 1.76,5.7224 1.03,8.4179 -0.676,2.5008 -2.766,4.4523 -5.363,5.0092 -2.698,0.5779 -3.427,0.5569 -5.854,-0.1629 -2.843,-0.8442 -4.878,-2.9575 -5.769,-5.9899 -0.378,-1.2844 -0.818,-2.3367 -0.978,-2.3367 -0.161,0 -0.292,3.8502 -0.292,8.5566 0,37.7322 -8.09,75.2332 -23.953,111.037 -14.21,32.0692 -29.705,57.0445 -53.358,86.0065 -13.967,17.1023 -29.867,33.8479 -59.543,62.7108 -10.047,9.7729 -18.804,18.2151 -19.459,18.7599 l -1.191,0.9917 z m 20.207,-5.9678 c 4.691,-7.7532 9.822,-13.1002 37.286,-38.8549 44.069,-41.3258 59.571,-59.1952 73.969,-85.2669 14.603,-26.4447 25.834,-60.2167 30.866,-92.8252 2.529,-16.3857 2.482,-14.9812 2.623,-77.3068 l 0.129,-56.7287 -13.703,-0.2542 c -7.536,-0.1409 -16.527,-0.2543 -19.981,-0.2521 -8.973,0 -11.968,-0.8365 -13.164,-3.6983 l -0.564,-1.3505 h -3.392 c -10.971,-0.011 -24.848,-2.6603 -36.01,-6.8748 -11.034,-4.166 -23.854,-11.8366 -33.198,-19.8638 -4.856,-4.1705 -17.284,-15.5173 -17.773,-16.2261 -0.43,-0.6241 -0.44,-0.6021 -0.08,0.1717 0.803,1.7082 8.07,10.026 12.647,14.4749 9.058,8.8065 18.257,15.3104 29.082,20.5628 9.657,4.6877 16.451,7.2149 27.374,10.1856 2.79,0.7584 3.32,1.0313 3.426,1.7655 0.155,1.0808 1.794,1.9383 6.67,3.4913 9.895,3.1523 16.889,3.9834 35.67,4.2409 l 15.285,0.2091 -0.207,51.4972 c -0.215,53.1713 -0.377,59.1556 -2.008,74.4066 -2.976,27.8173 -7.619,45.1804 -18.323,68.5344 -5.73,12.4993 -11.009,22.0696 -17.68,32.0505 -15.568,23.2925 -32.111,41.7232 -70.555,78.6079 -15.716,15.0792 -22.014,21.6084 -25.221,26.1497 -1.691,2.3918 -4.762,8.2617 -5.238,10.0106 -0.216,0.7947 -0.436,0.5086 -1.541,-2.012 -1.79,-4.0813 -3.814,-7.3007 -7.304,-11.6154 -3.097,-3.8292 -18.718,-19.5171 -32.568,-32.7054 -37.219,-35.4416 -59.935,-63.8797 -73.6,-92.1384 -12.908,-26.6957 -18.141,-43.8761 -21.111,-69.3104 -2.11,-18.0697 -2.747,-39.8719 -2.749,-94.0635 v -39.5086 h 12.134 c 18.269,0 28.283,-1.1249 38.149,-4.275 4.555,-1.4529 6.311,-2.4259 6.48,-3.586 0.11,-0.7221 0.833,-1.0457 5.141,-2.285 18.613,-5.3526 35.319,-13.9863 48.176,-24.8983 5.426,-4.6052 14.036,-13.4414 17.874,-18.3438 l 1.52,-1.9416 -2.517,2.3301 c -12.018,11.1234 -23.484,20.281 -31.437,25.1107 -15.319,9.3007 -32.869,14.9075 -49.389,15.776 l -5.166,0.2718 -0.12,1.6511 c -0.11,1.5013 -0.214,1.6499 -1.165,1.6543 -0.574,0 -2.181,0.3874 -3.569,0.8541 -2.444,0.8211 -3.179,0.853 -23.007,0.995 l -20.482,0.1475 v 38.8967 c 0,21.3926 -0.11,42.3913 -0.23,46.6619 -0.311,10.7502 0.419,32.6217 1.37,40.9648 4.655,40.8691 19.738,84.0132 40.285,115.2327 4.585,6.9673 10.473,14.7952 15.838,21.0581 4.302,5.0223 20.355,22.0695 23.038,24.4624 0.837,0.7474 4.477,4.242 8.089,7.7664 3.612,3.5232 10.75,10.3386 15.862,15.143 29.345,27.5818 34.317,32.8232 39.315,41.4414 1.02,1.7567 2.023,3.1413 2.231,3.0775 0.207,-0.066 1.343,-1.7126 2.524,-3.663 z m -0.753,-14.6533 c 2.058,-1.0643 2.024,-3.9866 -0.06,-5.0642 -3.086,-1.596 -5.927,2.7055 -3.203,4.8496 1.221,0.9598 1.754,0.995 3.262,0.2146 z m -5.738,-104.2502 c 0.586,-1.2823 1.065,-2.5051 1.065,-2.7186 0,-0.5284 -0.509,-0.4854 -1.174,0.099 -0.312,0.2741 -0.279,0.1464 0.08,-0.2917 0.346,-0.427 0.705,-1.5629 0.797,-2.5238 0.09,-0.9609 0.318,-2.0968 0.502,-2.5238 0.296,-0.6924 0.261,-0.7188 -0.322,-0.2433 -0.361,0.2928 -0.655,0.9136 -0.655,1.3791 0,0.4656 -0.499,1.5366 -1.106,2.3797 -1.018,1.4089 -1.092,1.7435 -0.926,4.1528 0.1,1.4419 0.293,2.6218 0.429,2.6218 0.138,0 0.729,-1.0489 1.314,-2.3312 z m 10.741,-2.0781 c 0.411,-1.0566 0.304,-1.236 -2.287,-3.8831 -2.202,-2.2487 -2.718,-2.6152 -2.724,-1.9328 0,0.5481 0.47,1.137 1.359,1.6851 1.352,0.8365 2.129,1.8392 2.129,2.7495 0,0.3115 -0.242,0.2543 -0.71,-0.1684 -1.839,-1.6642 -1.733,-0.3797 0.345,4.2112 l 0.879,1.9416 0.289,-1.7479 c 0.158,-0.9609 0.482,-2.2454 0.72,-2.8552 z m -7.069,-0.2828 c -0.246,-1.837 -0.51,-2.2212 -1.109,-1.6213 -0.633,0.6329 -0.07,3.2062 0.706,3.2062 0.497,0 0.575,-0.307 0.403,-1.5849 z m 1.796,-0.3434 c -0.11,-2.1618 -0.909,-2.3852 -0.909,-0.2521 0,1.3175 0.141,1.8073 0.486,1.6862 0.273,-0.099 0.457,-0.7231 0.423,-1.4341 z m -6.732,-3.2866 1.358,-1.5267 -1.65,1.268 c -0.908,0.6967 -1.65,1.5508 -1.65,1.8954 0,0.3489 0.13,0.4633 0.292,0.2586 0.16,-0.2025 0.903,-1.0555 1.65,-1.8953 z m 16.263,-0.1431 c 2.164,-2.0319 2.536,-3.3901 1.381,-5.0389 -0.525,-0.7496 -0.955,-0.8629 -3.269,-0.8629 -3.293,0 -3.893,0.2179 -3.893,1.4154 0,1.4639 2.676,6.3498 3.477,6.3498 0.175,0 1.212,-0.8387 2.304,-1.8634 z m -3.195,0 c -1.354,-1.4958 -0.559,-5.116 1.123,-5.116 1.065,0 2.523,1.7006 2.46,2.8673 -0.03,0.6109 -0.09,0.6549 -0.217,0.1728 -0.1,-0.3577 -0.73,-0.8706 -1.411,-1.1403 -0.682,-0.2697 -1.371,-0.5591 -1.531,-0.645 -0.16,-0.088 -0.291,0 -0.291,0.1739 0,0.1816 0.383,0.5019 0.852,0.7121 1.007,0.4535 1.647,2.4292 1.028,3.1755 -0.583,0.7033 -1.256,0.6362 -2.013,-0.2003 z m -17.791,-1.0027 c 0.07,-0.3721 -0.191,-0.9246 -0.583,-1.2284 -0.678,-0.5228 -0.649,-0.6098 0.554,-1.717 1.366,-1.257 2.962,-1.5157 4.12,-0.6693 0.643,0.47 0.633,0.5592 -0.165,1.574 -1.184,1.5046 -0.69,1.7226 0.553,0.2444 1.311,-1.5586 1.285,-2.1596 -0.126,-2.8893 -2.54,-1.3131 -6.695,-0.2334 -7.224,1.8777 -0.254,1.0149 0.648,3.1535 1.469,3.4815 0.764,0.3049 1.257,0.066 1.402,-0.6736 z m 11.128,-3.946 c 0,-0.8574 -1.232,-1.2283 -1.885,-0.5657 -0.335,0.339 -0.255,0.59 0.317,1.0126 0.947,0.6989 1.568,0.5217 1.568,-0.4469 z m -17.18,-1.7555 c 0.665,-1.1689 0.738,-1.1932 3.204,-1.0655 2.927,0.1508 3.369,-0.2311 0.694,-0.5976 -1.006,-0.1376 -2.453,-0.6825 -3.214,-1.2097 l -1.385,-0.9598 -2.987,1.2548 c -1.644,0.6901 -2.935,1.4276 -2.871,1.6389 0.09,0.2917 4.438,1.9009 5.684,2.1023 0.11,0.022 0.501,-0.5063 0.875,-1.1634 z m 35.87,0.2014 c 1.467,-0.5492 2.814,-1.1425 2.994,-1.3175 0.18,-0.175 -0.345,-0.5305 -1.165,-0.7903 -0.821,-0.2609 -2.036,-0.7837 -2.702,-1.1634 l -1.21,-0.6901 -2.615,1.4584 -2.616,1.4595 1.346,0.252 c 0.74,0.1387 1.658,0.5988 2.041,1.0214 0.868,0.9587 0.729,0.9675 3.927,-0.23 z m -23.155,-1.1293 c 0,-0.4017 -3.119,-1.7479 -4.6,-1.9845 -2.413,-0.3863 -3.576,-1.7457 -2.93,-3.4275 0.332,-0.864 2.402,-0.7782 3.948,0.1651 l 1.273,0.7749 -0.558,-1.0677 c -0.307,-0.5877 -1.073,-1.5585 -1.703,-2.1573 -1.4,-1.3296 -2.715,-1.148 -4.167,0.5779 -1.537,1.826 -1.304,3.1996 0.916,5.4197 l 1.886,1.8865 h 2.968 c 1.632,0 2.967,-0.088 2.967,-0.1871 z m 14.243,-0.7936 c 1.321,-0.8651 2.059,-2.7374 1.647,-4.1737 -0.18,-0.6263 -1.11,-1.9757 -2.067,-2.9994 -1.607,-1.717 -1.785,-1.8095 -2.33,-1.2074 -0.641,0.7088 -1.785,3.2415 -1.785,3.9525 0,0.2422 0.627,-0.1101 1.396,-0.7848 1.476,-1.2955 1.981,-1.3505 2.65,-0.2894 0.299,0.4743 0.28,0.8695 -0.07,1.4275 -0.666,1.0677 -0.608,1.2636 0.292,0.9785 0.593,-0.1882 0.72,-0.099 0.542,0.3588 -0.127,0.3336 -1.065,0.8531 -2.083,1.1547 -2.201,0.6538 -4.123,1.6058 -4.512,2.2332 -0.429,0.6956 5.14,0.1211 6.319,-0.6505 z m -9.404,-0.4193 c 0.924,-0.9246 3.209,-5.5893 2.737,-5.5893 -0.846,0 -4.081,4.6031 -4.081,5.8083 0,0.5955 0.634,0.492 1.344,-0.219 z m -2.12,-0.7276 c 0,-0.8233 -2.038,-4.8617 -2.453,-4.8617 -0.384,0 -0.267,0.393 1.006,3.3901 0.849,1.9966 1.447,2.6042 1.447,1.4716 z m -106.363,-6.385 c 1.34,-1.3406 1.445,-2.6372 0.33,-4.0549 -1.699,-2.1606 -5.02,-0.7561 -5.02,2.1232 0,1.1117 0.244,1.6477 1.024,2.2619 1.392,1.0952 2.325,1.0115 3.666,-0.3302 z m 108.75,-0.2553 c 2.691,-1.7996 5.766,-4.3818 5.766,-4.8397 0,-0.6032 -2.36,-4.2959 -4.571,-7.1489 -1.15,-1.4848 -2.352,-3.2029 -2.669,-3.8171 l -0.578,-1.1161 -1.254,2.0693 c -0.691,1.1381 -1.912,3.0522 -2.715,4.253 -1.622,2.4281 -2.623,5.5683 -2.167,6.801 0.164,0.4425 1.056,1.2504 1.981,1.7963 0.926,0.546 2.197,1.5333 2.825,2.1926 0.627,0.6593 1.177,1.1997 1.223,1.1997 0.04,0 1.017,-0.6252 2.159,-1.3901 z m -2.148,0 c -0.131,-0.3434 -0.243,-1.3517 -0.246,-2.2421 0,-2.2509 -0.496,-2.9069 -1.142,-1.5321 -0.783,1.6664 -0.939,0.3588 -0.217,-1.8151 0.352,-1.0599 0.854,-3.2877 1.115,-4.953 0.43,-2.744 0.519,-2.9443 0.961,-2.1485 0.29,0.5239 0.58,3.1799 0.721,6.604 0.199,4.8606 0.145,5.8006 -0.359,6.2188 -0.488,0.4051 -0.636,0.3809 -0.833,-0.132 z m 2.478,-3.2778 c 0,-0.7254 0.1,-0.8288 0.467,-0.4667 0.362,0.3621 0.362,0.5701 0,0.9322 -0.363,0.3622 -0.467,0.2587 -0.467,-0.4655 z m 109.765,3.4264 c 1.86,-1.7468 0.552,-4.9806 -2.013,-4.9806 -1.247,0 -2.549,1.0478 -3.046,2.4523 -0.277,0.7848 0.623,2.8045 1.387,3.1127 1.178,0.4733 2.825,0.2113 3.672,-0.5844 z m -107.788,-30.4777 c 3.937,-5.5308 4.759,-7.3569 4.778,-10.6138 0.02,-3.2469 -0.792,-4.7868 -4.395,-8.3375 l -2.748,-2.7077 v 7.0916 c 0,6.7714 -0.654,12.4883 -1.535,13.3985 -0.169,0.1761 -0.636,-0.9598 -1.036,-2.5238 -0.59,-2.3037 -0.728,-4.2651 -0.724,-10.3166 v -7.4714 l -3.222,3.2008 c -3.896,3.8677 -4.719,5.8137 -3.976,9.3942 0.591,2.8496 1.553,4.6371 5.415,10.0612 3.018,4.2387 3.319,4.5447 3.814,3.881 0.295,-0.3962 1.926,-2.6713 3.624,-5.0565 z m -11.295,-19.4687 c 2.305,-1.4176 4.14,-4.4511 4.474,-7.3976 0.137,-1.2052 0.341,-2.5403 0.454,-2.9674 0.142,-0.5371 -0.285,-0.2752 -1.381,0.8475 -3.829,3.9228 -7.177,5.39 -11.547,5.0598 l -2.857,-0.2168 0.757,1.4859 c 0.883,1.7302 3.192,3.7588 4.857,4.2684 1.628,0.4975 3.206,0.1728 5.243,-1.0798 z m 20.275,1.0721 c 1.863,-0.5173 3.635,-2.0219 4.592,-3.8997 0.418,-0.8189 0.76,-1.5387 0.76,-1.6015 0,-0.066 -1.622,-0.1122 -3.606,-0.1122 -3.434,0 -3.712,-0.066 -5.853,-1.3594 -1.236,-0.7473 -3.211,-2.2156 -4.388,-3.2635 l -2.139,-1.9041 0.263,1.9041 c 0.417,3.028 0.902,4.6064 1.84,5.9844 1.166,1.7115 3.348,3.4286 5.195,4.0868 1.847,0.6582 1.603,0.6461 3.336,0.1651 z m -20.6,-9.4834 c 2.876,-1.9537 4.207,-5.7675 4.207,-12.0502 0,-6.6579 -1.899,-11.8058 -5.783,-15.6768 -3.626,-3.6125 -8.333,-5.3284 -11.949,-4.3543 -3.778,1.017 -6.828,7.6067 -5.027,10.8581 l 0.512,0.9235 1.026,-1.3461 c 1.223,-1.6026 4.376,-3.4121 5.947,-3.4121 1.518,0 2.811,0.9796 3.513,2.6592 0.637,1.5233 0.543,1.5619 2.229,-0.9113 0.691,-1.0138 1.513,-0.5427 3.245,1.8656 1.753,2.4358 2.858,5.7202 3.093,9.2005 l 0.197,2.9124 -2.675,-2.7341 c -3.423,-3.4968 -5.594,-4.5854 -9.528,-4.7736 -4.098,-0.197 -6.689,0.6076 -9.188,2.8541 -2.733,2.4578 -3.742,4.7196 -3.612,8.0965 0.07,1.727 2.664,4.1286 4.463,4.1286 1.54,0 1.664,-0.2058 0.81,-1.3362 -0.733,-0.9686 -0.734,-3.8226 0,-5.2381 0.728,-1.4056 2.323,-2.744 4.373,-3.6674 1.749,-0.7892 2.702,-0.656 3.085,0.4281 0.134,0.3787 0.662,1.2559 1.175,1.9482 l 0.931,1.2603 1.115,-0.8244 c 1.629,-1.2042 2.846,-0.7595 3.904,1.4265 0.707,1.4605 0.821,2.2156 0.658,4.3696 -0.11,1.432 -0.321,2.9972 -0.475,3.4781 -0.254,0.7892 -0.154,0.8729 1.033,0.8729 0.758,0 1.911,-0.4051 2.723,-0.9576 z m 19.148,-0.1101 c -1.037,-3.8545 -0.842,-6.626 0.612,-8.6678 0.954,-1.3406 2.171,-1.4672 3.566,-0.3709 0.918,0.722 1.006,0.7276 1.558,0.099 0.323,-0.3677 0.879,-1.2449 1.235,-1.9504 0.358,-0.7045 0.883,-1.3704 1.167,-1.4804 0.78,-0.2994 3.007,0.7594 4.673,2.2222 2.53,2.2212 3.181,4.9123 1.756,7.2502 -0.666,1.0918 -0.693,1.3054 -0.192,1.498 0.977,0.3742 2.401,-0.1838 3.646,-1.4287 1.513,-1.5145 2.023,-3.3295 1.539,-5.4858 -1.132,-5.0344 -6.05,-8.4806 -12.091,-8.4729 -4.196,0 -6.494,1.2547 -10.299,5.5991 -0.708,0.8079 -1.407,1.3472 -1.553,1.1986 -0.5,-0.503 -0.19,-4.6998 0.506,-6.8219 1.291,-3.9449 3.158,-6.9684 4.304,-6.9684 0.262,0 0.836,0.6109 1.277,1.3582 0.442,0.7474 0.97,1.3594 1.175,1.3594 0.205,0 0.781,-0.743 1.281,-1.6499 1.246,-2.2641 2.838,-2.6725 5.667,-1.4551 1.117,0.4799 2.564,1.4815 3.217,2.2244 0.651,0.743 1.305,1.2295 1.453,1.082 0.147,-0.1475 0.259,-1.432 0.249,-2.8552 -0.04,-5.9403 -4.367,-9.5989 -9.747,-8.244 -5.257,1.323 -9.758,5.7059 -11.823,11.5119 -1.16,3.258 -1.466,10.66 -0.585,14.1415 1.05,4.1539 3.911,7.3767 6.547,7.3767 1.064,0 1.128,-0.077 0.862,-1.0677 z m -9.679,-21.2991 c 2.967,-7.4901 6.421,-12.5344 10.249,-14.9746 2.037,-1.2966 3.574,-1.3869 5.558,-0.3225 0.798,0.427 1.538,0.7759 1.646,0.7759 0.11,0 0.194,-0.689 0.194,-1.531 0,-1.1414 0.219,-1.684 0.863,-2.1353 1.41,-0.9873 2.782,-0.7253 5.021,0.9609 2.167,1.6323 3.258,1.815 3.977,0.6659 0.631,-1.0049 -1.084,-4.0076 -3.02,-5.2865 -1.349,-0.8927 -1.94,-1.0215 -4.678,-1.0171 -2.953,0 -3.323,0.099 -6.433,1.7369 -2.465,1.2933 -4.178,2.5954 -6.763,5.1401 -1.904,1.8745 -3.534,3.4077 -3.622,3.4077 -0.341,0 0.419,-2.6152 1.321,-4.5391 1.238,-2.6428 4.488,-5.5827 8.088,-7.3129 4.013,-1.9306 12.363,-3.8171 15.832,-3.5761 5.008,0.3478 9.611,3.5508 9.603,6.6855 0,1.7214 -1.152,3.182 -3.933,4.9981 -2.416,1.5784 -2.474,1.6566 -2.591,3.4804 -0.11,1.7225 0,1.9812 1.411,3.3944 1.232,1.2317 1.811,1.53 2.972,1.53 1.803,0 3.532,-0.9939 4.096,-2.3555 0.252,-0.6086 0.461,-3.9712 0.502,-8.0833 l 0.07,-7.0421 1.651,-0.6318 c 2.54,-0.9719 6.013,-0.5481 9.645,1.1766 1.627,0.7727 3.247,1.4045 3.601,1.4045 0.355,0 2.883,-2.2432 5.618,-4.9839 l 4.972,-4.9838 -5.754,-1.4771 c -3.166,-0.8123 -6.459,-1.5586 -7.32,-1.6587 -2.001,-0.2312 -3.841,0.5393 -7.151,2.9916 -1.425,1.0567 -3.426,2.2795 -4.446,2.7165 -2.137,0.9157 -5.516,1.4022 -7.057,1.0159 -1.052,-0.2642 -1.036,-0.2906 2.008,-3.2756 4.751,-4.6614 6.212,-8.5919 4.464,-12.0161 -1.147,-2.2486 -2.411,-3.029 -3.904,-2.4104 -1.34,0.5547 -2.346,1.935 -2.346,3.2161 0,1.2889 0.712,1.8382 2.384,1.8382 0.799,0 1.56,0.1728 1.69,0.3841 0.331,0.5349 -1.019,3.4396 -2.306,4.9629 -1.307,1.5454 -3.62,2.9399 -6.552,3.9481 l -2.198,0.7562 0.08,-2.6361 c 0.09,-2.8717 -0.451,-4.1528 -2.226,-5.3163 -1.192,-0.7814 -2.622,-0.4798 -3.928,0.8266 -0.797,0.7958 -0.882,1.0864 -0.519,1.7644 0.239,0.4469 1.04,1.0655 1.78,1.3748 1.656,0.6912 1.923,1.3109 1.179,2.734 -0.843,1.6158 -2.456,2.9917 -5.304,4.5293 -2.703,1.4595 -8.898,3.7577 -10.127,3.7577 -1.917,0 0.158,-3.1853 4.529,-6.954 6.225,-5.3669 8.119,-8.801 7.844,-14.2262 -0.123,-2.4479 -0.412,-3.6697 -1.339,-5.6487 -1.987,-4.2453 -5.03,-6.9529 -7.816,-6.9529 -0.614,0 -1.233,-0.1167 -1.375,-0.2587 -0.323,-0.3236 1.47,-3.4968 2.701,-4.7802 l 0.923,-0.962 1.025,1.0247 1.025,1.0258 1.881,-1.487 c 2.144,-1.695 3.564,-2.1199 5.815,-1.739 l 1.575,0.2652 -0.588,-1.1359 c -1.041,-2.0131 -3.501,-3.9062 -5.458,-4.199 -2.615,-0.393 -4.234,0.055 -6.406,1.771 -2.391,1.8898 -4.776,5.3437 -6.696,9.6969 -2.165,4.9079 -2.787,7.7355 -2.564,11.6627 0.203,3.5739 0.798,5.1666 2.527,6.7702 2.372,2.1992 2.87,0.6439 1.302,-4.0713 -1.258,-3.7853 -1.214,-4.6075 0.326,-5.9943 0.592,-0.5327 1.562,-0.8046 3.248,-0.9081 2.037,-0.1254 2.613,0 3.756,0.7694 2.075,1.4089 3.115,3.2184 3.115,5.4164 0,4.1231 -2.424,8.0349 -7.812,12.606 -1.956,1.6587 -3.773,3.5618 -4.168,4.3631 -0.385,0.7826 -1.822,4.6261 -3.193,8.5423 l -2.494,7.1203 -0.112,-3.7588 c -0.212,-7.1291 1.293,-12.6071 4.809,-17.5073 2.617,-3.6477 2.77,-4.4258 0.965,-4.9079 -0.99,-0.2642 -1.759,-0.1882 -3.033,0.2971 -0.939,0.3589 -1.759,0.59 -1.823,0.5141 -1.257,-1.4727 -1.755,-8.1351 -1.018,-13.6286 0.693,-5.1566 2.673,-10.9131 6.027,-17.5161 2.454,-4.8341 2.921,-6.057 2.921,-7.6529 0,-2.5327 -1.384,-6.078 -4.102,-10.5126 -1.226,-1.9999 -3.207,-5.2524 -4.401,-7.2281 -1.194,-1.9757 -2.26,-3.5827 -2.367,-3.5717 -0.325,0.033 -7.839,12.4024 -9.266,15.2532 -0.983,1.9625 -1.377,3.3262 -1.513,5.2414 l -0.185,2.5887 3.122,6.024 c 3.656,7.0498 4.918,10.5632 5.751,16.0148 0.695,4.5425 0.55,11.8565 -0.271,13.6197 -0.419,0.8993 -0.694,1.0622 -1.503,0.8883 -2.739,-0.5878 -3.394,-0.612 -4.261,-0.1552 -0.517,0.2729 -1.002,0.6868 -1.078,0.9179 -0.08,0.2323 0.764,1.5432 1.867,2.9124 2.486,3.0852 4.445,7.1082 5.185,10.6402 0.309,1.4804 0.664,5.0576 0.787,7.9491 l 0.224,5.2579 -2.165,-6.0196 c -1.19,-3.3097 -2.637,-7.3283 -3.216,-8.9297 -0.889,-2.4612 -1.408,-3.2437 -3.353,-5.0488 -8.036,-7.4593 -9.662,-9.7718 -9.709,-13.7992 -0.02,-1.9449 0.159,-2.6515 1.006,-3.9327 0.568,-0.8585 1.644,-1.8502 2.389,-2.2035 2.613,-1.2405 6.165,-0.5239 7.499,1.5123 0.678,1.0346 0.666,1.1315 -0.612,4.8364 -1.735,5.0256 -1.257,6.3608 1.344,3.7599 1.665,-1.6654 2.286,-3.9085 2.277,-8.2287 0,-2.8683 -0.213,-4.0846 -1.163,-6.7944 -2.15,-6.1286 -6.499,-12.267 -9.934,-14.0193 -3.09,-1.5761 -7,-0.4964 -9.177,2.5349 -0.675,0.9399 -1.228,1.8007 -1.228,1.9129 0,0.1123 0.602,0.1101 1.338,-0.011 2.276,-0.3698 4.048,0.2026 5.893,1.9031 l 1.724,1.5905 1.146,-1.0985 c 1.137,-1.0886 1.154,-1.0919 1.975,-0.3511 0.808,0.7264 3.058,4.3377 3.064,4.9189 0,0.1607 -0.527,0.2917 -1.176,0.2917 -4.947,0 -10.305,8.2418 -9.507,14.6246 0.143,1.1447 0.859,3.2789 1.591,4.7406 1.424,2.8485 2.987,4.636 7.454,8.5269 2.325,2.0241 4.36,4.6757 4.36,5.6795 0,1.3384 -11.721,-3.116 -14.564,-5.5342 -2.616,-2.2234 -3.251,-4.4808 -1.454,-5.1644 2.528,-0.962 3.091,-2.4919 1.404,-3.8182 -1.352,-1.0643 -2.549,-1.0159 -3.947,0.1607 -1.37,1.1524 -2.073,3.5574 -1.746,5.9712 0.223,1.6455 0.203,1.6862 -0.7,1.4132 -4.575,-1.3813 -8.797,-4.8782 -9.571,-7.9281 -0.462,-1.8216 -0.364,-1.9757 1.266,-1.9757 0.736,0 1.515,-0.3093 1.928,-0.7661 0.604,-0.667 0.63,-0.9224 0.201,-1.957 -1.052,-2.5404 -3.555,-3.0907 -5.194,-1.1414 -1.414,1.6785 -1.926,3.8524 -1.395,5.904 0.62,2.3896 2.888,5.5122 5.491,7.5561 1.246,0.9785 2.266,1.9328 2.266,2.121 0,0.8332 -2.15,1.1722 -4.613,0.7298 -2.934,-0.5284 -5.49,-1.7578 -8.515,-4.0923 -1.304,-1.0071 -2.984,-1.8976 -4.097,-2.175 -1.76,-0.4358 -2.345,-0.3522 -8.641,1.2317 l -6.754,1.7005 4.758,4.7769 c 2.617,2.6274 5.17,4.8815 5.675,5.0103 0.608,0.1552 1.721,-0.1629 3.3,-0.9444 4.36,-2.1562 8.164,-2.6361 10.732,-1.3538 1.273,0.6362 1.348,0.7771 1.183,2.2322 -0.21,1.8557 -0.196,2.5095 0.193,8.5423 0.293,4.5689 0.324,4.6845 1.558,5.9216 0.987,0.9895 1.583,1.2614 2.755,1.2592 2.571,0 4.752,-2.0054 4.781,-4.3906 0.02,-1.5927 -0.534,-2.3885 -2.447,-3.509 -2.134,-1.2503 -3.987,-3.3328 -4.322,-4.8539 -0.474,-2.1628 1.6,-4.7725 5.036,-6.3344 2.698,-1.225 7.088,-1.1601 13.008,0.1937 5.249,1.2009 9.113,3.0159 12.118,5.6949 2.08,1.8535 4.201,5.2315 4.754,7.5682 0.254,1.0754 0.08,0.9741 -2.378,-1.3725 -5.398,-5.1578 -10.223,-7.8357 -14.494,-8.0448 -2.073,-0.099 -2.799,0.033 -4.061,0.7694 -2.097,1.2173 -3.886,3.7984 -3.554,5.1236 0.356,1.4154 1.624,1.3021 3.954,-0.3544 1.088,-0.7749 2.378,-1.3594 2.998,-1.3594 1.471,0 2.993,1.5707 2.993,3.0885 0,1.4001 0,1.4023 1.64,0.4073 2.661,-1.6224 5.375,-0.492 9.34,3.8886 3.565,3.9405 8.363,14.0865 8.471,17.9146 0.02,0.9268 0.183,0.5657 0.547,-1.2658 0.282,-1.4099 0.988,-3.7687 1.572,-5.2414 z m -3.622,-64.1252 c -2.369,-9.0035 -2.538,-11.8355 -1.058,-17.7637 1.548,-6.2001 2.378,-8.9012 2.615,-8.5148 0.123,0.1981 0.869,2.4567 1.659,5.0201 1.635,5.2976 2.155,10.5819 1.4,14.1943 -0.771,3.6862 -2.946,11.6209 -3.185,11.6242 -0.128,0 -0.771,-2.0505 -1.431,-4.5601 z m -42.193,64.5567 c 0.721,-0.5537 0.645,-0.6758 -1.744,-2.8144 -2.912,-2.6086 -5.288,-6.0769 -5.657,-8.2573 -0.377,-2.2255 0.386,-4.0615 2.759,-6.6425 1.748,-1.902 2.027,-2.4017 1.754,-3.1469 -0.654,-1.7809 -3.013,-1.4033 -5.629,0.8993 -2.543,2.2377 -3.439,4.1561 -3.658,7.8313 -0.166,2.7869 -0.09,3.204 1.048,5.5088 1.245,2.5294 3.052,4.2222 6.248,5.8512 2.714,1.3836 3.849,1.563 4.879,0.7705 z m 92.402,-0.8024 c 2.989,-1.41 5.049,-3.3978 6.432,-6.2045 1.112,-2.2597 1.215,-2.7616 1.044,-5.128 -0.358,-4.985 -3.087,-8.5996 -7.435,-9.8467 -2.644,-0.7583 -3.017,1.7996 -0.602,4.1353 4.56,4.4137 3.993,8.7503 -1.881,14.388 -2.67,2.5623 -2.828,2.8012 -2.231,3.3977 0.759,0.7606 1.856,0.5867 4.673,-0.7418 z m 112.172,-95.3028 c -1.051,-4.9773 -0.483,-10.7063 1.508,-15.2025 0.535,-1.2064 1.934,-3.6697 3.109,-5.4726 4.306,-6.6051 5.479,-9.8917 5.439,-15.2421 -0.01,-1.9218 -0.185,-3.8953 -0.38,-4.384 -0.234,-0.591 -0.301,0.3941 -0.199,2.941 0.244,6.0779 -1.055,10.0106 -5.621,17.0164 -5.089,7.8071 -6.209,13.8707 -3.997,21.6426 0.653,2.2938 0.737,1.5211 0.141,-1.2988 z m -319.461,-6.6008 c -0.192,-5.5815 -0.984,-7.861 -4.789,-13.7848 -3.519,-5.4758 -3.833,-6.1109 -4.833,-9.7564 -0.686,-2.4985 -0.801,-3.7532 -0.652,-7.1015 0.134,-3.0279 0.08,-3.8248 -0.222,-3.1182 -0.222,0.5228 -0.402,2.7847 -0.401,5.0268 0,5.2458 0.962,8.0536 4.731,13.8354 1.512,2.3213 3.213,5.2293 3.776,6.4632 1.897,4.1462 2.44,9.5417 1.555,15.4248 -0.148,0.9829 -0.04,0.8222 0.392,-0.5823 0.439,-1.4275 0.556,-3.1248 0.443,-6.407 z m 29.882,-13.7694 c 0.445,-0.3115 1.029,-1.0974 1.298,-1.7446 0.412,-0.9972 0.39,-1.3263 -0.147,-2.1463 -0.349,-0.5316 -1.054,-1.2426 -1.569,-1.5805 -0.852,-0.5581 -1.042,-0.5581 -2.119,0 -2.215,1.1458 -2.658,3.5089 -0.956,5.0873 1.169,1.083 2.316,1.2096 3.493,0.3852 z m 263.148,0.1365 c 0.987,-0.4502 1.808,-1.8238 1.808,-3.0258 0,-1.1127 -1.769,-2.756 -2.966,-2.756 -3.012,0 -3.967,4.6998 -1.184,5.8214 1.141,0.459 1.25,0.4568 2.342,-0.044 z m -199.309,-11.6275 c 21.022,-1.6455 41.856,-13.4469 55.261,-31.302 4.141,-5.5155 10.188,-18.3097 9.14,-19.3388 -0.277,-0.2741 -0.669,-0.033 -1.251,0.766 -2.844,3.914 -7.479,9.2831 -11.617,13.4568 -15.693,15.831 -33.134,26.3072 -55.046,33.0642 -3.098,0.9543 -6.216,1.8602 -6.931,2.0121 -2.395,0.5085 -1.011,0.9983 4.814,1.7016 0.225,0.022 2.758,-0.1343 5.63,-0.3599 z m 141.125,-0.383 c 1.132,-0.4502 1.062,-0.4898 -2.487,-1.3979 -5.88,-1.5068 -15.761,-4.9343 -21.595,-7.4923 -19.468,-8.5379 -36.026,-21.3772 -47.853,-37.1069 -4.308,-5.7312 -5.045,-5.3394 -2.408,1.2789 5.167,12.966 15.242,24.9303 27.942,33.1798 9.688,6.2926 21.91,10.6039 33.782,11.9159 4.088,0.4513 11.059,0.2432 12.619,-0.3775 z m -74.774,-32.0043 c 1.222,-0.6318 1.581,-1.2955 1.581,-2.93 0,-1.2294 -1.531,-2.7142 -2.8,-2.7142 -0.896,0 -3.024,2.0164 -3.024,2.8639 0,1.0456 0.839,2.4809 1.695,2.8948 1.126,0.5448 1.286,0.5382 2.548,-0.1145 z m -42.296,-15.9047 c 1.388,-0.2972 3.545,-0.9246 4.794,-1.3946 2.233,-0.8398 8.589,-4.8275 9.56,-5.9964 0.433,-0.5217 0.348,-0.568 -0.665,-0.3655 -1.307,0.2609 -5.228,-0.449 -6.7,-1.214 -2.276,-1.1843 -4.304,-3.8237 -4.836,-6.2925 l -0.271,-1.2559 1.968,1.3241 c 1.082,0.7275 2.91,1.5354 4.064,1.793 1.861,0.4161 2.262,0.3874 3.571,-0.2631 2.212,-1.0984 3.013,-2.4523 3.201,-5.412 0.202,-3.1633 -0.618,-5.4967 -2.74,-7.7982 -2.877,-3.1215 -6.349,-3.5893 -10.488,-1.4122 -1.122,0.59 -2.184,1.137 -2.362,1.214 -0.627,0.2774 1.397,-3.2645 2.575,-4.505 l 1.2,-1.2614 h -1.824 c -1.691,0 -1.824,-0.077 -1.824,-0.9807 0,-1.9449 -3.815,-2.2718 -5.723,-0.4909 -1.087,1.0137 -2.331,3.2756 -3.052,5.5485 -0.478,1.5123 -0.493,1.4617 -0.518,-1.9053 l -0.02,-3.4572 -0.835,0.7397 c -0.46,0.4072 -1.319,1.4925 -1.909,2.4127 l -1.072,1.6741 -1.295,-2.4501 c -1.136,-2.1485 -1.571,-2.5877 -3.529,-3.5662 -1.826,-0.9135 -2.232,-1.2933 -2.232,-2.0891 0,-0.9179 -0.1,-0.962 -1.678,-0.7836 -3.974,0.4479 -8.593,3.9899 -10.708,8.2132 -1.731,3.4539 -2.377,6.4378 -2.32,10.7095 l 0.04,3.7038 0.324,-2.5239 c 0.179,-1.3879 0.605,-3.258 0.947,-4.1561 1.116,-2.9278 4.997,-5.5254 8.28,-5.543 h 1.691 l -1.256,1.4309 c -3.511,3.9976 -3.622,9.4493 -0.319,15.689 4.109,7.763 16.239,12.7502 25.957,10.6721 z m 91.637,0 c 3.846,-0.8233 6.738,-2.0407 9.957,-4.1936 3.619,-2.4204 5.988,-5.3547 7.521,-9.3161 2.005,-5.1786 1.426,-9.676 -1.727,-13.4095 -1.234,-1.4606 -0.941,-1.5486 2.126,-0.6384 2.614,0.776 5.102,2.459 6.155,4.1617 0.885,1.432 1.629,5.6927 1.388,7.9479 -0.145,1.3506 -0.134,1.3671 0.175,0.2752 1.5,-5.3085 -1.317,-15.4578 -5.423,-19.5457 -2.185,-2.1739 -5.056,-3.6212 -7.326,-3.695 -1.638,-0.055 -1.779,0.022 -1.779,0.8806 0,0.7176 -0.41,1.1491 -1.748,1.8436 -2.113,1.0974 -4.081,3.2327 -4.697,5.0983 l -0.454,1.3769 -0.579,-1.1337 c -0.71,-1.3868 -1.616,-2.4479 -2.494,-2.9178 -0.603,-0.3236 -0.642,-0.1145 -0.434,2.3653 0.13,1.5432 0.08,2.7198 -0.125,2.7198 -0.194,0 -0.655,-0.8497 -1.024,-1.8888 -0.369,-1.0379 -1.352,-2.6548 -2.183,-3.5915 -1.47,-1.6565 -1.575,-1.7027 -3.853,-1.7027 -2.562,0 -3.149,0.2696 -2.444,1.1205 0.593,0.7132 0.247,0.908 -2.18,1.2305 l -1.978,0.262 1.346,1.1821 c 0.74,0.6505 1.761,2.0021 2.27,3.0048 l 0.923,1.8227 -2.506,-1.3307 c -3.543,-1.881 -6.136,-2.1067 -8.477,-0.7341 -2.026,1.1865 -3.353,2.7858 -4.541,5.4703 -1.033,2.3368 -0.861,5.6916 0.396,7.7256 1.943,3.1458 6.654,3.1139 10.833,-0.077 l 1.341,-1.0225 -0.284,0.9609 c -1.017,3.4418 -3.209,6.0988 -5.995,7.2622 -0.755,0.3159 -2.511,0.6868 -3.901,0.8244 l -2.527,0.2521 2.512,1.8854 c 6.738,5.0631 14.574,7.0531 21.736,5.521 z m -38.889,-12.3573 c -4.766,-5.1951 -6.422,-7.2314 -9.25,-11.3776 l -2.339,-3.4264 -0.09,-11.6726 -0.09,-11.6738 -0.208,11.6892 -0.209,11.688 -2.248,3.378 c -2.319,3.4836 -5.479,7.3283 -9.943,12.0953 -1.41,1.5068 -0.814,0.9818 1.323,-1.1645 3.404,-3.4187 5.875,-6.2893 10.025,-11.6463 l 1.098,-1.4165 3.929,4.9673 c 3.414,4.3168 10.925,12.54 11.455,12.54 0.1,0 -1.46,-1.7919 -3.467,-3.9801 z m -9.584,-42.6565 c 2.318,-1.487 2.473,-1.8888 0.228,-0.5911 -1.816,1.0501 -2.986,1.06 -4.988,0.044 -0.728,-0.3698 -1.192,-0.5349 -1.035,-0.3676 0.465,0.4909 3.175,2.099 3.562,2.1122 0.195,0 1.2,-0.5305 2.233,-1.1942 z" id="path139" /></g></svg>