<?xml version='1.0' encoding='utf-8'?>
<svg xmlns="http://www.w3.org/2000/svg" width="243.71402mm" height="487.38757mm" viewBox="0 0 243.71402 487.38757" version="1.1" id="svg5" xml:space="preserve"><defs id="defs2" /><g id="layer1"><path style="fill:#000000;stroke-width:1" d="m 148.1939999999995 482.2040999999999 c -7.153,-18.0467 -12.167,-33.5796 -14.267,-44.1898 -2.204,-11.1364 -2.158,-9.3278 -2.16,-85.4248 0,-77.1519 -0.283,-118.1789 -0.812,-118.1789 -0.684,0 -4.736,4.5389 -6.025,6.7468 -0.726,1.246 -1.515,3.1297 -1.751,4.1859 -0.396,1.7687 -0.341,2.2765 0.694,6.4298 1.05,4.2127 1.85,8.4909 2.372,12.6891 l 0.221,1.7782 -0.64,-0.947 c -0.352,-0.5209 -1.757,-3.2015 -3.121,-5.9569 -1.362,-2.7556 -2.573,-5.0101 -2.69,-5.0101 -0.116,0 -0.581,0.8922 -1.033,1.9826 -0.706,1.7023 -0.76,2.117 -0.382,2.934 0.243,0.5233 1.299,3.0648 2.346,5.6477 1.048,2.5828 2.719,6.3187 3.714,8.3019 l 1.81,3.6058 -1.282,-0.9776 c -0.705,-0.5377 -1.44,-1.2729 -1.633,-1.6337 -0.193,-0.3608 -0.53,-0.6561 -0.749,-0.6561 -0.287,0 -0.337,2.0485 -0.181,7.3795 0.215,7.3356 0.547,10.6938 2.219,22.3762 1.773,12.3949 1.931,18.745 0.662,26.4354 -1.183,7.1642 -4.765,15.266 -8.338,18.8547 -3.48,3.4964 -7.606,4.7496 -10.604,3.2204 -3.651,-1.8626 -3.109,-6.2153 1.062,-8.5372 l 1.556,-0.8655 -1.334,1.4889 c -1.991,2.2221 -1.742,4.2631 0.615,5.0409 3.117,1.0287 8.161,-1.5052 11.345,-5.7002 l 1.736,-2.2865 -0.2,-4.8076 c -0.358,-8.5323 -2.783,-16.8016 -8.725,-29.7573 -4.268,-9.3043 -5.638,-15.1934 -5.243,-22.5281 0.196,-3.6241 0.726,-6.9032 1.468,-9.0689 0.133,-0.3911 -0.344,0.1341 -1.061,1.1672 -0.716,1.0331 -2.846,3.9138 -4.732,6.4015 -4.603,6.0729 -7.47,10.5509 -10.067,15.7274 -7.438,14.8244 -11.069,31.8959 -9.57,44.9842 1.324,11.5566 5.337,22.0664 12.977,33.9852 l 1.619,2.5258 -1.574,-1.0826 c -2.615,-1.7991 -7.216,-6.3389 -10.261,-10.1252 -8.764,-10.8946 -14.691,-24.2408 -16.502,-37.1573 -0.785,-5.5982 -0.527,-15.4401 0.538,-20.469 2.084,-9.8493 6.001,-17.7395 12.952,-26.0882 2.149,-2.5791 2.589,-3.2896 2.041,-3.2896 -1.332,0 -11.603,3.602 -15.311,5.3696 -9.346,4.454 -16.366,10.7558 -20.661,18.5463 -1.245,2.2574 -1.346,1.4904 -0.214,-1.6259 2.789,-7.6855 10.952,-15.7974 20.865,-20.7347 1.663,-0.8282 5.628,-2.5574 8.811,-3.8429 11.574,-4.673 16.876,-8.059 21.191,-13.5332 l 1.117,-1.4172 -2.134,1.6156 c -1.174,0.8886 -2.854,2.0254 -3.734,2.5263 -1.919,1.0917 -7.507,3.3086 -9.247,3.6686 l -1.245,0.2576 1.235,-1.2931 c 1.522,-1.5928 4.138,-3.2779 10.174,-6.5523 3.282,-1.7806 5.325,-3.1665 6.936,-4.7073 1.255,-1.2009 1.61,-1.6131 0.788,-0.916 -3.44,2.9168 -5.678,3.9377 -9.935,4.53 -4.574,0.6366 -10.264,-1.2549 -13.494,-4.4851 -1.691,-1.6902 -2.217,-3.0378 -0.594,-1.5192 2.028,1.8971 3.129,2.213 8.215,2.3565 3.972,0.112 5.308,0 8.18,-0.6582 4.274,-0.9864 6.924,-2.1359 7.718,-3.3478 0.337,-0.513 0.534,-1.0099 0.44,-1.1041 -0.09,-0.094 -1.036,0.2101 -2.092,0.6764 -1.058,0.4662 -2.458,0.9647 -3.113,1.1076 -1.131,0.2463 -1.179,0.2164 -0.934,-0.5764 0.829,-2.6815 3.717,-6.7091 6.83,-9.5233 l 2.407,-2.1756 -1.601,0.5089 c -10.042,3.1935 -13.128,4.4593 -16.465,6.7542 -2.737,1.8817 -2.731,1.2148 0.01,-1.2018 2.105,-1.8553 3.586,-2.6239 6.52,-3.3836 3.546,-0.9185 3.7,-1.2165 0.638,-1.2287 -6.541,-0.026 -14.834,-1.2838 -20.22,-3.0671 -11.658,-3.859 -19.278,-10.1045 -21.202,-17.3765 -0.257,-0.9689 -0.414,-1.8139 -0.351,-1.8777 0.06,-0.064 0.808,0.9446 1.653,2.2408 4.164,6.3916 13.099,12.7858 20.889,14.9489 2.11,0.5859 2.34,0.5867 4.153,0.015 2.441,-0.7695 5.811,-3.0134 7.632,-5.082 1.327,-1.5081 2.835,-4.5517 2.445,-4.9401 -0.1,-0.096 -1.059,0.23 -2.141,0.7252 -1.082,0.4952 -3.306,1.2396 -4.944,1.6542 -2.517,0.6374 -3.582,0.7199 -6.89,0.5332 -2.151,-0.1214 -4.391,-0.3696 -4.978,-0.5516 l -1.068,-0.3309 1.175,-0.03 c 2.116,-0.056 6.25,-1.1486 8.53,-2.256 2.66,-1.292 2.919,-1.5957 1.601,-1.88 -0.545,-0.1179 -2.672,-0.9112 -4.726,-1.7629 -6.987,-2.8975 -22.833,-7.0464 -34.853,-9.1257 -8.763,-1.5158 -17.824,-1.7763 -24.149,-0.6941 -4.87,0.8331 -11.259,2.8365 -15.985,5.0119 l -3.076,1.4156 1.778,-1.6104 c 5.155,-4.6678 24.096,-15.5806 33.799,-19.4732 6.269,-2.5143 9.126,-3.1304 15.458,-3.3318 7.277,-0.2315 11.028,0.3531 18.945,2.9528 3.369,1.1066 6.313,2.0823 6.541,2.1684 0.236,0.089 1.147,-1.2629 2.117,-3.1402 0.936,-1.8132 2.162,-3.8209 2.725,-4.4613 1.149,-1.3091 1.062,-1.7417 -0.414,-2.0659 -0.559,-0.123 -2.275,-1.018 -3.813,-1.989 -3.215,-2.03 -6.031,-3.1768 -7.8,-3.1768 -0.676,0 -1.231,-0.1654 -1.231,-0.3675 0,-1.5584 4.885,-8.4589 8.013,-11.3166 l 1.968,-1.7996 -1.167,-0.5936 c -3.987,-2.0267 -9.648,-7.4283 -11.559,-11.0301 -1.035,-1.9497 -2.406,-6.1355 -2.108,-6.4338 0.07,-0.067 0.74,0.139 1.498,0.4555 2.041,0.8524 4.29,0.4954 9.757,-1.5479 6.324,-2.3642 8.254,-2.7153 13.61,-2.4757 9.428,0.4217 14.716,3.1735 23.664,12.3143 4.285,4.3782 4.79,5.0284 5.334,6.8796 0.331,1.1244 0.794,2.0446 1.03,2.0449 0.944,0 2.268,0.8795 2.457,1.6309 0.109,0.4384 -0.155,2.2112 -0.588,3.9395 -0.695,2.7743 -0.74,3.4009 -0.38,5.3499 0.224,1.2143 0.703,2.8948 1.067,3.7348 0.737,1.7044 3.779,5.9725 4.257,5.9725 0.168,0 0.413,-1.0366 0.543,-2.3036 0.327,-3.1942 1.405,-6.5117 3.453,-10.6206 0.958,-1.9247 1.744,-3.6559 1.744,-3.8468 0,-0.191 -0.388,-0.8566 -0.863,-1.4792 -1.723,-2.2602 -3.05,-5.6247 -3.042,-7.7115 0,-2.0421 0.864,-4.4386 1.889,-5.2859 0.497,-0.4118 0.81,-0.3947 2.08,0.1134 0.822,0.3289 1.953,0.9246 2.514,1.3238 0.56,0.3991 1.102,0.6425 1.203,0.541 0.445,-0.4446 -6.494,-4.872 -7.635,-4.872 -0.61,0 -6.761,6.0619 -7.765,7.6522 -0.554,0.8762 -1.131,1.5934 -1.282,1.5938 -0.483,0 -0.97,-1.7678 -0.961,-3.49 0,-0.9235 0.386,-2.5851 0.856,-3.728 l 0.848,-2.0618 -1.52,0.2281 c -2.015,0.3022 -3.459,-0.4629 -4.624,-2.4503 -1.593,-2.7179 -0.931,-5.8948 1.586,-7.613 1.044,-0.7125 1.609,-0.8002 5.159,-0.8002 3.748,0 12.637,-0.5566 14.239,-0.8916 0.572,-0.1195 0.824,-0.6244 1.184,-2.3639 0.515,-2.4964 1.693,-5.0253 3.484,-7.483 l 1.217,-1.6697 -0.865,-1.7089 c -1.236,-2.4406 -2.012,-5.2872 -2.012,-7.3819 0,-2.1968 1.067,-6.1836 2.502,-9.3484 l 1.061,-2.3418 -1.076,-2.7923 c -1.46,-3.7855 -2.184,-7.0901 -2.165,-9.8796 0.02,-2.2525 1.192,-7.8232 2.318,-10.9806 l 0.549,-1.5397 -1.606,-3.3 c -2.242,-4.6088 -2.333,-5.9211 -0.707,-10.0995 3.06,-7.8663 5.066,-16.847 5.413,-24.2418 0.225,-4.7805 -0.108,-8.1582 -1.319,-13.4025 -0.703,-3.0411 -0.901,-3.4341 -2.857,-5.6902 -3.681,-4.2457 -6.151,-7.4814 -7.88,-10.326 l -1.682,-2.7667 0.968,-0.7053 c 2.174,-1.5838 4.536,-4.0597 6.149,-6.4464 l 1.709,-2.5284 1.781,0.1712 c 0.98,0.094 2.528,0.06 3.442,-0.078 l 1.659,-0.2489 -0.885,-0.9503 c -1.288,-1.3823 -1.684,-2.318 -1.684,-3.9838 0,-1.9752 0.774,-3.1754 2.972,-4.609 1.006,-0.6558 2.509,-1.655 3.34,-2.2205 l 1.512,-1.0281 1.511,1.0521 c 0.832,0.5788 2.405,1.6094 3.496,2.2903 3.206,2.0012 3.983,4.6755 2.284,7.8703 -0.489,0.9197 -0.889,1.7627 -0.889,1.8733 0,0.1106 1.334,0.09 2.963,-0.046 l 2.964,-0.2469 1.532,2.3522 c 0.844,1.2937 2.658,3.3942 4.034,4.6679 l 2.501,2.3157 -0.807,1.6718 c -1.627,3.3683 -3.377,5.8827 -6.205,8.9114 -3.141,3.365 -3.539,4.2069 -4.644,9.8309 -1.777,9.0418 -1.351,15.8054 1.789,28.4512 0.681,2.7384 1.652,6.2592 2.159,7.8241 1.27,3.9129 1.176,6.0329 -0.457,10.394 l -1.294,3.4533 1.29,3.9234 c 2.696,8.2018 2.876,11.8788 0.92,18.8422 l -1.068,3.8076 0.964,2.9063 c 0.825,2.4821 0.966,3.5033 0.968,6.9962 0,3.5515 -0.119,4.4091 -0.923,6.5159 l -0.927,2.426 1.235,2.6727 c 1.198,2.5913 2.233,6.4395 2.246,8.3436 0,0.7985 0.197,0.9629 1.34,1.1518 0.733,0.1213 2.075,0.2223 2.98,0.2244 1.527,0 1.678,-0.08 2.103,-1.1518 0.252,-0.6357 1.863,-4.1166 3.582,-7.7353 5.091,-10.721 6.613,-16.5824 6.264,-24.1254 -0.334,-7.2236 -2.359,-11.0861 -8.172,-15.5851 -1.287,-0.9958 -1.234,-1.1707 0.253,-0.8353 2.161,0.4873 3.448,1.5096 4.662,3.7035 3.068,5.5402 4.571,11.2114 4.991,18.8228 0.539,9.7675 1.55,-2.0248 1.596,-18.6314 l 0.03,-11.5383 0.67,2.4896 c 1.41,5.2538 2.22,11.2269 2.256,16.6252 0.02,2.8846 0.07,5.2452 0.109,5.2457 0.23,0 1.36,-4.5726 2.606,-10.5593 0.78,-3.7543 1.754,-7.9153 2.162,-9.2466 0.75,-2.4417 3.144,-7.7101 3.391,-7.4629 0.183,0.1819 -0.872,13.8301 -1.248,16.156 -0.165,1.0269 -0.205,1.8642 -0.09,1.8607 0.405,-0.012 2.664,-3.7387 5.061,-8.3512 6.057,-11.649 9.239,-23.6839 9.309,-35.2083 0.04,-6.5326 -0.339,-8.943 -2.817,-17.9063 -0.884,-3.198 -1.547,-5.8739 -1.474,-5.9462 0.269,-0.2693 2.866,4.0719 4.907,8.2044 6.732,13.6271 8.525,29.7247 4.911,44.0992 -0.887,3.525 -2.593,7.9856 -4.527,11.8311 -4.401,8.7545 -9.78,15.4432 -17.097,21.2636 -2.106,1.6754 -4.011,3.3966 -4.231,3.8247 -0.221,0.4282 -1.291,2.939 -2.379,5.5796 -1.086,2.6407 -2.07,5.0127 -2.184,5.2713 -0.114,0.2585 1.479,-0.6216 3.539,-1.9561 2.061,-1.3343 5.722,-3.4663 8.136,-4.7377 7.969,-4.1984 12.643,-7.6644 18.937,-14.0435 3.387,-3.4328 3.488,-3.415 0.981,0.1735 -4.162,5.9564 -9.717,10.5287 -21.391,17.6108 -2.837,1.7204 -6.194,3.9049 -7.462,4.8543 -2.711,2.0303 -8.227,6.7749 -8.066,6.9367 0.06,0.061 1.27,-0.033 2.686,-0.2109 2.276,-0.2858 3.021,-0.5957 6.445,-2.6832 4.76,-2.9008 7.123,-3.8808 11.221,-4.6551 3.798,-0.7173 8.368,-0.5256 13.82,0.5799 13.95,2.8292 24.818,10.2335 29.404,20.033 0.612,1.3091 1.037,2.4567 0.943,2.5501 -0.09,0.094 -0.625,-0.4345 -1.18,-1.1733 -4.698,-6.2411 -11.56,-10.9674 -18.827,-12.9654 -2.408,-0.6624 -3.799,-0.7857 -9.069,-0.8037 -7.231,-0.024 -10.368,0.5344 -20.004,3.5648 -0.455,0.1431 -0.623,0 -0.623,-0.5395 0,-0.9885 -0.355,-0.9256 -1.273,0.2257 -0.755,0.9475 -0.779,0.9522 -1.726,0.3319 -1.227,-0.8035 -1.554,-0.5444 -3.475,2.7444 -2.577,4.4116 -3.721,5.2442 -13.441,9.7774 l -0.889,0.4147 0.889,-0.218 c 1.706,-0.4184 6.24,-2.329 8.441,-3.557 2.644,-1.4746 6.863,-4.7716 9.116,-7.1233 l 1.624,-1.6946 0.812,1.7601 c 1.103,2.3916 1.095,7.1936 -0.02,10.2436 l -0.759,2.0818 0.836,-0.2099 c 0.461,-0.1155 2.419,-0.3136 4.352,-0.4403 10.755,-0.7048 24.682,3.668 31.444,9.8735 1.068,0.98 1.622,1.6723 1.23,1.5383 -1.428,-0.4893 -12.132,-0.6235 -15.153,-0.19 -7.752,1.1132 -14.488,3.4942 -24.678,8.7235 l -6.402,3.2853 4.593,1.0972 c 6.047,1.4441 11.121,3.8637 14.139,6.7416 1.18,1.1264 2.388,2.5282 2.682,3.1149 0.453,0.9021 0.241,0.7817 -1.371,-0.7793 -2.465,-2.3894 -5.504,-4.1916 -8.848,-5.2479 -2.739,-0.8651 -8.412,-1.8523 -8.743,-1.5213 -0.102,0.1014 1.146,1.2255 2.772,2.498 5.177,4.0516 10.074,9.5488 12.325,13.8331 1.808,3.4423 1.997,5.2296 1.152,10.8683 -0.404,2.6886 -0.91,6.7287 -1.124,8.9782 -0.385,4.0349 -1.253,6.9685 -2.323,7.8564 -0.632,0.5247 -0.63,0.2601 0.03,-3.411 0.283,-1.5648 0.52,-3.6699 0.527,-4.6779 0.01,-2.1131 -1.489,-11.3532 -2.498,-15.3585 -1.306,-5.1873 -4.388,-10.3445 -10.079,-16.87 -2.129,-2.4402 -2.802,-2.9526 -5.791,-4.4069 -4.19,-2.0381 -4.915,-2.6442 -7.39,-6.1765 -2.185,-3.1193 -4.684,-5.305 -7.66,-6.7034 -1.841,-0.865 -2.263,-0.9168 -7.201,-0.8833 -2.886,0.02 -5.244,-0.064 -5.241,-0.1837 0,-0.1208 1.13,-1.009 2.505,-1.9738 3.063,-2.1509 5.153,-4.3716 6.074,-6.4527 0.939,-2.1226 0.945,-5.8013 0.01,-8.2529 -0.71,-1.8699 -3.299,-5.7703 -4.615,-6.953 -0.704,-0.6333 -0.736,-0.6317 -1.105,0.057 -0.578,1.0821 -2.28,1.9865 -7.142,3.7948 -5.35,1.9904 -8.396,3.5556 -11.09,5.7004 l -2.019,1.6066 0.197,1.9059 c 0.253,2.452 -0.763,4.7484 -3.635,8.2142 -2.449,2.9556 -3.819,5.7979 -4.587,9.5147 -0.775,3.7557 -0.713,4.8062 0.169,2.82 0.638,-1.4378 1.403,-1.746 1.403,-0.5658 0,0.2883 0.403,1.3205 0.896,2.2937 0.493,0.9732 1.204,3.3004 1.58,5.1717 0.378,1.8714 1.029,3.9854 1.449,4.698 0.441,0.7456 0.609,1.3474 0.398,1.4177 -1.231,0.4104 -3.593,2.6554 -5.969,5.6735 -1.504,1.9104 -2.889,3.6336 -3.077,3.8292 -0.544,0.5629 0.454,-1.2674 1.649,-3.0229 l 1.088,-1.6004 -1.062,0.889 c -1.647,1.3786 -3.495,3.5434 -4.876,5.712 -1.273,2.0004 -4.737,8.7783 -5.583,10.9256 -1.243,3.1568 -0.274,-1.3343 1.245,-5.7694 0.531,-1.5532 1.659,-4.3147 2.504,-6.1368 1.208,-2.6003 1.395,-3.2361 0.873,-2.9568 -0.902,0.483 -5.277,5.3862 -6.547,7.3369 -0.564,0.8682 -1.092,1.5119 -1.174,1.4305 -0.261,-0.2606 1.62,-4.5363 2.82,-6.4115 0.638,-0.9968 1.636,-2.3561 2.218,-3.0207 1.052,-1.2009 1.053,-1.2069 0.178,-0.941 -1.974,0.5999 -5.244,2.613 -7.237,4.4545 -2.304,2.1285 -2.236,1.7199 0.279,-1.6975 2.492,-3.3848 7.738,-6.9026 11.501,-7.7125 0.636,-0.1368 1.156,-0.396 1.156,-0.5761 0,-0.5324 -2.53,-0.3522 -4.446,0.3168 -1.786,0.6239 -6.719,3.7517 -7.611,4.8261 -0.969,1.168 -1.088,0.524 -0.219,-1.1907 0.493,-0.9715 0.895,-1.9039 0.895,-2.072 0,-0.2943 -10.484,2.2926 -12.585,3.1052 -0.566,0.2186 -1.094,0.3313 -1.175,0.2504 -0.576,-0.5762 10.732,-4.1399 13.138,-4.1403 1.697,-4e-4 1.734,-0.6043 0.05,-0.919 -3.224,-0.6049 -8.424,0.6598 -13.625,3.3137 -1.644,0.8389 -3.039,1.4767 -3.097,1.4175 -0.121,-0.1203 5.227,-3.6783 8.67,-5.7682 1.225,-0.744 2.152,-1.428 2.06,-1.52 -0.24,-0.2399 -5.631,0.5867 -7.505,1.151 -0.872,0.2623 -1.585,0.4041 -1.585,0.3152 0,-0.089 1,-0.6297 2.223,-1.2019 2.493,-1.1666 7.189,-2.4606 9.126,-2.5143 0.702,-0.019 1.666,-0.1443 2.143,-0.2774 0.779,-0.2176 0.653,-0.3374 -1.252,-1.1924 -1.165,-0.5228 -3.059,-1.1957 -4.21,-1.4954 -2.645,-0.6891 -2.827,-0.8706 -0.668,-0.6672 3.97,0.3738 9.434,1.9339 11.719,3.3458 l 1.228,0.7584 2.026,-0.889 c 1.115,-0.4891 2.23,-0.9484 2.478,-1.0208 0.511,-0.1488 -6.11,-5.5416 -9.469,-7.7124 -4.769,-3.0821 -10.252,-4.6656 -16.307,-4.7091 l -3.483,-0.025 1.423,-0.5448 c 0.853,-0.3264 3.133,-0.6162 5.691,-0.7229 4.701,-0.1962 7.303,0.2334 11.442,1.8891 1.265,0.506 2.358,0.8615 2.429,0.7899 0.227,-0.2264 -4.193,-6.1941 -6.054,-8.1743 -0.983,-1.0451 -2.823,-2.8339 -4.09,-3.9754 -1.894,-1.7044 -2.082,-1.9655 -1.06,-1.4607 3.612,1.784 7.858,5.0618 9.623,7.4292 0.799,1.0727 1.048,1.2405 1.054,0.7113 0.01,-0.9721 1.314,-3.7384 2.21,-4.6933 0.544,-0.5798 0.612,-0.8014 0.245,-0.8045 -0.279,0 -1.144,-0.9225 -1.924,-2.0449 -0.779,-1.1224 -2.815,-3.6713 -4.526,-5.6642 -6.534,-7.6124 -12.721,-11.206 -21.958,-12.7505 -5.7,-0.9529 -9.982,-0.1746 -16.198,2.9437 -3.078,1.5439 -4.698,2.0246 -6.469,1.9198 -1.107,-0.066 -1.126,-0.041 -0.816,1.0394 0.926,3.2277 3.523,5.9763 7.599,8.0426 3.678,1.8641 6.201,2.2725 12.4,2.0079 4.561,-0.1946 5.245,-0.1531 5.245,0.3182 0,0.3618 -0.739,0.7481 -2.222,1.1615 -4.707,1.3117 -8.686,3.9375 -13.17,8.6911 -2.038,2.1604 -5.129,6.3845 -4.81,6.5742 0.06,0.036 0.909,0.2661 1.887,0.5117 0.978,0.2457 3.16,1.3197 4.85,2.3869 5.227,3.3021 6.622,3.589 11.154,2.2931 3.56,-1.0181 3.595,-0.8742 0.182,0.7763 -6.947,3.3603 -10.964,9.9349 -13.488,22.0737 -0.582,2.7951 -1.151,5.3249 -1.264,5.6219 -0.159,0.4133 0.232,0.6416 1.669,0.973 1.031,0.2382 2.996,0.743 4.365,1.1217 3.071,0.8494 8.33,0.9355 11.499,0.1884 3.469,-0.8176 7.008,-2.6337 10.9,-5.592 1.952,-1.484 3.662,-2.6287 3.799,-2.5439 0.137,0.085 -0.141,0.8316 -0.618,1.6595 -2.972,5.156 -3.156,12.7376 -0.455,18.7538 1.046,2.3301 4.123,7.1129 4.576,7.1129 0.519,0 3.196,-2.1616 3.196,-2.5806 0,-0.2434 -0.465,-1.3225 -1.032,-2.3984 -1.514,-2.872 -2.276,-5.8149 -2.089,-8.0647 0.246,-2.9652 0.988,-3.2946 0.988,-0.4386 0,4.7749 1.482,8.3184 4.725,11.3003 1.199,1.1023 3.331,3.0961 4.738,4.4309 l 2.558,2.4266 0.37,-1.7278 c 0.946,-4.4093 2.584,-6.8918 8.811,-13.3505 5.706,-5.9184 7.118,-8.2982 6.793,-11.4488 -0.269,-2.6076 0.27,-2.3292 2.23,1.1495 2.091,3.7114 3.403,5.3256 5.322,6.5446 2.503,1.5907 4.79,2.0809 11.112,2.3812 4.995,0.2372 6.019,0.3876 7.398,1.087 0.88,0.4463 1.936,1.1196 2.348,1.4959 l 0.749,0.6842 0.229,-2.1991 c 0.808,-7.729 -0.482,-12.3589 -4.667,-16.7457 -2.328,-2.4406 -2.248,-2.4707 3.176,-1.2085 5.459,1.2704 6.357,1.3619 9.416,0.9591 2.31,-0.304 3.514,-0.7359 6.925,-2.4847 2.294,-1.1758 4.867,-2.2272 5.789,-2.3655 l 1.66,-0.2489 -1.202,-2.1809 c -3.055,-5.5485 -6.443,-9.5041 -10.265,-11.9876 -1.755,-1.1398 -2.012,-1.4072 -1.178,-1.225 2.713,0.5931 5.735,3.263 9.267,8.1865 1.69,2.3574 4.425,7.3978 4.425,8.1564 0,0.1106 -0.41,0.2012 -0.912,0.2012 -0.502,0 -2.766,0.8222 -5.033,1.8272 -4.718,2.093 -8.367,3.1368 -10.998,3.1456 -1.685,0.01 -1.847,0.082 -2.068,0.9596 -0.131,0.5244 -0.204,13.6718 -0.162,29.2164 l 0.08,28.2628 -1.211,1.0245 c -2.774,2.3493 -4.431,3.2295 -8.62,4.581 -5.357,1.7274 -7.956,3.2115 -10.638,6.0726 -1.126,1.2008 -2.046,1.9361 -2.046,1.636 0,-0.7877 1.869,-5.2586 3.014,-7.2128 2.225,-3.7972 6.199,-6.5647 9.427,-6.5647 0.567,0 1.144,-0.1816 1.282,-0.4036 0.335,-0.5421 -2.445,-0.1231 -4.988,0.752 l -1.908,0.6564 -0.794,-2.4701 c -1.142,-3.5526 -0.867,-5.8292 1.231,-10.1688 2.428,-5.0224 4.55,-7.9428 8.957,-12.3328 4.301,-4.2833 4.893,-5.1653 5.282,-7.8629 l 0.256,-1.7782 -1.445,2.1338 c -0.794,1.1737 -2.67,3.5271 -4.167,5.2298 -3.984,4.5312 -8.806,11.0452 -10.057,13.5844 -1.296,2.6327 -2.032,6.4899 -1.681,8.8124 0.138,0.9156 0.639,2.4316 1.114,3.369 0.799,1.5783 0.818,1.728 0.249,2.0259 -1.674,0.8763 -4.701,4.6268 -6.203,7.6857 l -1.586,3.2278 -0.964,-3.1404 c -2.7,-8.8056 -2.627,-17.7743 0.195,-23.5461 1.669,-3.4149 5.031,-6.6331 8.832,-8.4575 1.664,-0.7978 3.984,-1.7195 5.158,-2.0482 1.173,-0.3288 2.285,-0.7402 2.472,-0.9141 0.488,-0.4577 0.05,-0.4046 -3.318,0.4029 -8.11,1.9444 -13.79,7.356 -16.043,15.2872 -0.957,3.3685 -1.296,9.719 -0.753,14.1165 0.471,3.8302 2.148,10.7062 3.175,13.0294 l 0.719,1.6246 -0.881,4.7291 c -1.209,6.4863 -1.536,13.7629 -1.528,33.8916 v 17.0707 l 0.708,-1.3427 c 0.681,-1.2883 0.714,-2.1752 0.826,-21.8718 0.123,-21.6965 0.21,-22.9605 1.906,-27.814 0.644,-1.8431 0.706,-1.9062 1.11,-1.1502 0.547,1.0197 3.455,4.304 4.636,5.2342 0.652,0.5141 0.443,0.068 -0.755,-1.612 -1.556,-2.1808 -3.11,-5.564 -3.218,-7.0068 -0.07,-0.9132 2.636,-4.7618 4.42,-6.2891 2.211,-1.8916 5.248,-3.2821 8.194,-3.7503 4.378,-0.696 8.242,-1.3927 9.06,-1.6335 l 0.779,-0.2294 -0.08,69.2967 c -0.08,63.5727 -0.133,69.6347 -0.697,73.3867 -1.667,11.0994 -4.237,21.2488 -8.15,32.1854 -2.217,6.1975 -11.953,30.8374 -12.339,31.228 -0.155,0.1579 -1.258,-2.1712 -2.449,-5.1759 z m 2.666,-31.8245 c -0.09,-0.3461 -0.17,-0.1491 -0.177,0.4377 0,0.5869 0.07,0.8699 0.164,0.6292 0.101,-0.2407 0.103,-0.7209 0.01,-1.0669 z m -0.573,-12.7721 c -0.207,-4.9181 -0.472,-9.1868 -0.587,-9.4858 -0.114,-0.2991 -0.44,-0.6324 -0.722,-0.7409 -0.575,-0.2206 -0.528,1.0948 0.395,10.9892 0.274,2.934 0.625,6.6948 0.78,8.3575 0.485,5.1972 0.552,0.7103 0.134,-9.12 z m 4.949,-10.3717 c -4.477,-2.8457 -7.91,-9.9787 -8.898,-18.4876 -0.228,-1.965 -0.515,-13.8729 -0.666,-27.6362 l -0.264,-24.1835 0.871,-2.6673 c 1.81,-5.537 4.61,-10.2567 10.252,-17.2738 1.426,-1.7742 3.154,-4.1575 3.84,-5.2963 1.184,-1.9675 1.263,-2.0281 1.567,-1.2195 1.395,3.6974 1.722,16.6478 0.607,24.0921 -1.158,7.7375 -3.855,15.8548 -8.094,24.3596 -0.764,1.5345 -1.244,2.7 -1.067,2.5899 0.698,-0.4308 6.136,-12.066 8,-17.1163 3.866,-10.4716 5.007,-16.0793 5.032,-24.7169 0.02,-6.8979 -0.4,-9.2919 -2.359,-13.4535 -0.883,-1.8754 -0.998,-2.4091 -0.687,-3.2007 1.736,-4.4344 1.416,-14.2462 -0.638,-19.6211 -1.583,-4.1396 -4.91,-7.0989 -7.993,-7.1093 h -1.032 l 1.461,1.0581 c 1.932,1.3997 4.204,4.2996 5.465,6.9772 1.586,3.3689 2.168,6.7625 1.976,11.5249 -0.272,6.7052 -2.145,11.0555 -8.15,18.9189 -6.898,9.0333 -9.28,13.2918 -11.995,21.4461 -1.417,4.2553 -2.997,11.7962 -3.39,16.1816 -0.204,2.2861 -0.193,2.2653 1.04,-1.8828 1.317,-4.4378 3.236,-9.3622 3.775,-9.6958 0.189,-0.1168 0.323,2.6311 0.323,6.6277 0,9.2487 0.61,31.7279 1.081,39.8036 0.931,15.9582 2.461,19.6197 8.593,20.562 2.221,0.3413 2.565,0.1942 1.35,-0.5777 z m -74.832,-97.247 c -0.01,-5.5307 0.447,-8.5032 2.329,-15.0835 1.942,-6.7956 6.437,-16.2443 10.967,-23.0588 2.022,-3.0412 3.456,-5.4595 2.953,-4.979 -0.205,0.1956 -1.767,2.276 -3.473,4.6233 -6.604,9.0909 -10.427,16.7329 -12.809,25.6061 -0.8,2.9759 -1.099,11.2455 -0.545,14.9775 0.244,1.6403 0.477,2.9823 0.517,2.9823 0.04,0 0.07,-2.2806 0.06,-5.0679 z m 36.91,-36.0379 c -0.36,-2.4019 -0.587,-6.2562 -0.597,-10.1063 -0.02,-6.5041 0.372,-9.2524 1.856,-13.1593 l 0.705,-1.8535 -1.158,-1.1919 -1.158,-1.1919 -0.845,3.0969 c -1.239,4.5402 -1.423,13.1838 -0.407,19.1119 0.841,4.912 1.852,9.5082 2.049,9.3119 0.07,-0.075 -0.126,-1.8822 -0.445,-4.0178 z m -12.949,-30.3778 c 1.666,-2.4341 3.018,-5.0849 3.519,-6.9047 0.543,-1.9694 -0.06,-1.2032 -1.67,2.1204 -1.521,3.141 -3.284,5.9254 -5.279,8.3407 l -1.322,1.6004 1.705,-1.6004 c 0.939,-0.8802 2.31,-2.4806 3.047,-3.5564 z m 60.296,1.7782 c 0.128,-0.2075 -0.233,-0.3557 -0.868,-0.3557 -1.649,0 -2.51,-1.0818 -2.51,-3.1528 0,-2.4741 0.954,-3.6043 3.042,-3.6043 2.13,0 3.625,1.3263 4.01,3.5563 0.259,1.5023 0.292,1.5396 0.534,0.6091 0.278,-1.0685 -0.213,-3.2908 -0.923,-4.1817 -1.449,-1.8148 -3.581,-2.229 -5.489,-1.0663 -2.869,1.7495 -3.36,5.9172 -0.923,7.8342 0.961,0.7555 2.755,0.9628 3.127,0.3612 z m -68.552,-24.0165 c 3.167,-1.317 6.493,-4.6483 6.493,-6.5027 0,-0.9672 -0.904,-2.1997 -1.612,-2.1997 -0.24,0 -1.32,1.1747 -2.401,2.6106 -2.14,2.8442 -5.126,5.5866 -7.04,6.4684 l -1.217,0.5598 2.221,-0.1904 c 1.222,-0.1047 2.822,-0.4404 3.556,-0.746 z m -22.45,-28.4786 c 0.298,-1.1905 0.03,-1.3407 -3.733,-2.1071 -3.627,-0.7385 -11.569,-0.8471 -15.84,-0.2169 -3.356,0.4954 -10.123,2.1153 -10.876,2.6034 -0.435,0.2817 -0.416,0.3092 0.103,0.1475 0.348,-0.1092 2.909,-0.5376 5.689,-0.9519 4.093,-0.6101 5.968,-0.7123 9.857,-0.5377 4.62,0.2075 10.037,0.9142 12.268,1.6007 1.805,0.5548 2.283,0.4531 2.532,-0.538 z m 100.122,-33.016 c 4.394,-0.9312 6.945,-2.8617 8.907,-6.7377 l 1.06,-2.094 -1.829,1.8001 c -2.222,2.1869 -6.22,4.218 -11.39,5.7853 -2.053,0.6227 -3.886,1.2733 -4.071,1.4459 -0.539,0.4993 4.699,0.3566 7.323,-0.1996 z m -14.833,-33.6303 c 0.796,-0.7966 0.329,-2.2391 -0.648,-2.0021 -1.784,0.4333 -8.362,0.9743 -12.669,1.0419 -4.314,0.068 -4.577,0.1097 -3.487,0.5577 2.061,0.8472 4.228,1.0563 10.325,0.9964 4.764,-0.046 6.051,-0.1647 6.479,-0.5939 z m 30.373,-20.7394 c 1.091,-2.2187 2.992,-8.9545 3.362,-11.9179 0.294,-2.3609 0,-1.6403 -1.119,2.8081 -0.567,2.237 -1.744,5.8656 -2.617,8.0634 -1.678,4.228 -1.474,4.7993 0.374,1.0464 z m -39.952,0.5756 c 2.347,-0.1015 5.463,-0.015 6.924,0.1922 1.461,0.2073 2.705,0.3276 2.764,0.2677 0.06,-0.059 -0.201,-0.4918 -0.579,-0.9597 -0.633,-0.7827 -0.987,-0.8602 -4.429,-0.9711 -2.923,-0.094 -4.385,0.042 -6.684,0.6235 -1.618,0.4093 -3.109,0.9272 -3.315,1.151 -0.273,0.2991 -0.183,0.3372 0.34,0.1439 0.391,-0.1447 2.631,-0.346 4.979,-0.4475 z m 2.489,-10.8617 c 3.129,0.042 6.145,0.1754 6.7,0.2951 0.932,0.2012 0.979,0.1618 0.616,-0.5175 -0.217,-0.4044 -1.136,-1.1704 -2.043,-1.7022 -2.574,-1.5081 -5.039,-1.3628 -9.54,0.5623 -3.93,1.6804 -4.532,2.0379 -2.668,1.5864 0.685,-0.1659 3.806,-0.2668 6.935,-0.2241 z m 49.767,-11.827 c 5.586,-8.4325 8.44,-16.6554 8.889,-25.6061 0.147,-2.9384 0.121,-3.2165 -0.15,-1.6004 -0.181,1.0759 -0.515,3.0763 -0.744,4.4455 -0.711,4.2615 -3.76,13.3411 -6.223,18.5295 -0.713,1.5024 -2.324,4.2695 -3.58,6.1489 -1.256,1.8794 -1.787,2.8571 -1.18,2.1725 0.606,-0.6846 1.95,-2.5251 2.988,-4.0899 z m -47.865,-0.4015 c 3.959,-0.2424 3.954,-0.8325 -0.01,-1.13 -2.844,-0.2135 -2.29,-0.6789 0.885,-0.7447 1.042,-0.021 1.624,-0.1744 1.49,-0.3911 -0.306,-0.4969 -2.345,-0.4424 -5.73,0.1531 -3.194,0.5623 -5.059,1.232 -5.75,2.0649 -0.488,0.5886 0.222,0.5923 9.115,0.047 z m -3.15,112.1839 c -5.824,-3.7558 -13.875,-13.8296 -13.863,-17.3465 0,-1.5999 1.704,-4.6434 4.26,-7.6357 1.073,-1.2567 1.997,-2.2395 2.052,-2.1842 0.06,0.055 -0.3,0.9642 -0.79,2.0194 -0.941,2.0278 -2.19,6.9739 -1.847,7.3167 0.112,0.1113 1.69,-1.1886 3.508,-2.8889 3.263,-3.0518 6.724,-5.1633 9.351,-5.7034 l 1.066,-0.2195 -1.091,0.6401 c -2.048,1.201 -4.414,3.0672 -4.977,3.9248 l -0.56,0.8561 1.536,-0.2223 c 1.824,-0.2642 5.659,0.2396 7.405,0.9729 l 1.244,0.5228 -2.668,-0.018 c -2.578,-0.018 -6.402,0.6574 -6.399,1.1302 0,0.1273 1.721,0.2535 3.823,0.2805 4.383,0.056 6.867,0.7067 10.536,2.7589 2.285,1.278 3.758,2.5494 1.771,1.5295 -2.373,-1.218 -8.526,-1.8884 -12.22,-1.3312 -2.994,0.4515 -7.182,1.3636 -6.471,1.4093 0.785,0.05 4.579,2.7924 7.009,5.0656 2.632,2.4616 3.165,3.6038 0.649,1.3891 -0.912,-0.8029 -2.953,-2.1103 -4.535,-2.9054 -2.321,-1.167 -3.138,-1.4113 -4.239,-1.2677 -0.749,0.098 -1.443,0.2584 -1.541,0.3567 -0.372,0.3717 5.698,8.9139 8.191,11.5281 0.792,0.8314 1.367,1.5115 1.275,1.5115 -0.09,0 -1.205,-0.6699 -2.475,-1.4888 z m -14.586,-6.5362 c -0.608,-1.5974 -0.41,-3.2444 0.519,-4.3136 0.826,-0.9515 0.896,-0.9689 1.499,-0.3756 0.605,0.5959 0.596,0.7274 -0.232,3.1118 -0.475,1.3693 -0.993,2.4897 -1.151,2.4897 -0.16,0 -0.445,-0.4106 -0.635,-0.9123 z m -1.169,-13.9543 c -0.585,-2.928 1.784,-9.2327 4.705,-12.5177 l 1.423,-1.6004 -1.2,2.3117 c -1.212,2.3335 -3.74,9.4447 -3.763,10.5856 0,0.3393 -0.223,0.9966 -0.481,1.4607 l -0.467,0.8436 z m -59.884,-43.9029 c -2.827,-2.98 -3.273,-7.3047 -0.941,-9.1387 1.439,-1.1326 1.603,-0.8777 0.613,0.959 -1.192,2.2122 -1.011,4.624 0.554,7.3974 0.602,1.066 1.044,1.9381 0.983,1.9381 -0.06,0 -0.605,-0.5201 -1.209,-1.1558 z m 31.058,-3.2806 c -0.95,-0.658 -2.767,-1.4775 -4.035,-1.8209 -2.204,-0.5964 -2.51,-0.596 -6.807,0.01 -3.589,0.5054 -4.912,0.5565 -6.541,0.2529 -2.273,-0.4241 -5.227,-1.7682 -6.849,-3.1167 -1.014,-0.8427 -0.96,-0.8342 1.067,0.1699 3.982,1.9717 6.6,2.2622 15.126,1.6774 4.18,-0.2867 4.566,-0.2573 6.22,0.4739 1.816,0.804 3.186,1.8811 3.772,2.9676 0.481,0.8934 0.01,0.746 -1.953,-0.6133 z m 4.209,-1.029 c -4.89,-3.2938 -7.33,-8.4309 -6.757,-14.2349 0.233,-2.3626 1.575,-7.2604 2.296,-8.3778 0.212,-0.3277 0.31,2.3983 0.268,7.4685 l -0.06,7.9844 1.04,2.1338 c 0.608,1.2479 1.904,2.9829 3.12,4.1788 1.146,1.1247 2.035,2.045 1.978,2.045 -0.06,0 -0.902,-0.5391 -1.881,-1.1978 z" id="path74" /></g></svg>